<?xml version="1.0" encoding="UTF-8" standalone="no"?><!DOCTYPE svg PUBLIC "-//W3C//DTD SVG 1.1//EN" "http://www.w3.org/Graphics/SVG/1.1/DTD/svg11.dtd"><svg width="100%" height="100%" viewBox="0 0 1571 134" version="1.1" xmlns="http://www.w3.org/2000/svg" xmlns:xlink="http://www.w3.org/1999/xlink" xml:space="preserve" xmlns:serif="http://www.serif.com/" style="fill-rule:evenodd;clip-rule:evenodd;stroke-miterlimit:10;"><rect id="Artboard1" x="0" y="0" width="1570.3" height="133.912" style="fill:none;"/><clipPath id="_clip1"><rect x="0" y="0" width="1570.3" height="133.912"/></clipPath><g clip-path="url(#_clip1)"><g><circle cx="59.299" cy="59.509" r="58.7"/><g><circle cx="59.299" cy="59.309" r="43.7" style="fill:none;stroke:#fff;stroke-width:6px;"/><g><path d="M95.299,48.609c4.7,1.6 9.8,-0.9 11.4,-5.6c1.6,-4.7 -0.9,-9.8 -5.6,-11.4c-4.7,-1.6 -9.8,0.9 -11.4,5.6c-1.6,4.7 0.9,9.8 5.6,11.4Z" style="fill:#fff;fill-rule:nonzero;"/><path d="M98.199,40.209l-30.1,25" style="fill:none;fill-rule:nonzero;stroke:#fff;stroke-width:6px;"/></g><g><path d="M78.199,91.809c-0.4,4.9 3.2,9.3 8.2,9.8c5,0.4 9.3,-3.2 9.8,-8.2c0.4,-4.9 -3.2,-9.3 -8.2,-9.8c-5,-0.4 -9.4,3.2 -9.8,8.2Z" style="fill:#fff;fill-rule:nonzero;"/><path d="M87.099,92.609l-19,-27.4" style="fill:none;fill-rule:nonzero;stroke:#fff;stroke-width:6px;"/></g><path d="M60.599,70.109c2.7,4.2 8.3,5.4 12.4,2.7c4.2,-2.7 5.4,-8.3 2.7,-12.4c-2.7,-4.2 -8.3,-5.4 -12.4,-2.7c-4.2,2.6 -5.4,8.2 -2.7,12.4Z" style="fill:#fff;fill-rule:nonzero;"/><g><path d="M21.799,62.209c-4.3,-2.5 -9.8,-1.1 -12.3,3.1c-2.5,4.3 -1.1,9.8 3.1,12.3c4.3,2.5 9.8,1.1 12.3,-3.1c2.5,-4.2 1.1,-9.7 -3.1,-12.3Z" style="fill:#fff;fill-rule:nonzero;"/><path d="M17.199,69.909l50.9,-4.7" style="fill:none;fill-rule:nonzero;stroke:#fff;stroke-width:6px;"/></g></g></g><path d="M217.089,78.956c0,-24.773 -38.121,-25.013 -38.121,-41.488c0,-7.817 6.133,-13.229 15.393,-13.229c5.652,0 12.506,2.646 16.835,6.134l3.728,-10.102c-4.93,-3.487 -12.025,-6.374 -20.203,-6.374c-15.994,0 -27.178,11.184 -27.178,25.014c0,22.848 38.122,24.051 38.122,41.608c0,9.38 -6.614,14.551 -16.596,14.551c-9.259,0 -19.241,-4.69 -24.291,-9.139l-0.722,12.146c6.374,4.209 16.235,7.335 24.412,7.335c17.918,0 28.621,-11.785 28.621,-26.456Z" style="fill-rule:nonzero;"/><path d="M234.406,131.508c3.607,-0.361 8.418,-0.481 12.627,-0.481c1.924,-5.893 5.772,-14.792 7.455,-19.121l29.824,-70.71c-3.608,0.36 -8.057,0.481 -12.627,0.481c-2.525,7.455 -5.772,15.994 -9.019,24.171l-7.336,18.159l-17.317,-43.052l-12.626,1.563c3.006,5.773 6.854,14.191 10.221,22.127c0.602,1.323 7.937,17.558 8.178,18.039c2.164,5.171 3.968,9.861 5.652,14.19l-15.032,34.634Z" style="fill-rule:nonzero;"/><path d="M351.294,103.127c-0.24,-3.487 -0.481,-9.019 -0.481,-13.709l0,-27.418c0,-13.95 -6.734,-21.887 -19.601,-21.887c-8.178,0 -17.317,5.532 -22.248,13.469l-0.841,-12.266c-3.728,0.361 -6.855,0.601 -11.064,0.601c0.481,5.772 0.722,15.032 0.722,22.728l0,15.754c0,7.817 -0.241,16.956 -0.722,22.728l12.627,0c-0.481,-3.607 -0.601,-9.019 -0.601,-13.709l0,-22.127c0,-7.817 9.861,-17.076 19.12,-17.076c8.178,0 11.184,5.772 11.184,14.19l0,15.994c0,7.817 -0.24,16.956 -0.842,22.728l12.747,0Z" style="fill-rule:nonzero;"/><path d="M420.682,46.126c-5.291,-3.728 -12.506,-6.013 -19.962,-6.013c-19.001,0 -32.59,15.273 -32.59,34.273c0,17.437 13.228,31.026 31.387,31.026c8.659,0 13.709,-1.804 20.444,-6.013l0.601,-11.785c-6.614,5.652 -11.905,7.817 -19.602,7.817c-11.424,0 -21.646,-8.057 -21.646,-23.089c0,-12.266 8.538,-22.007 20.804,-22.007c6.374,0 12.387,1.924 17.317,5.893l3.247,-10.102Z" style="fill-rule:nonzero;"/><path d="M470.468,91.703c-2.525,1.684 -6.494,3.127 -9.861,3.127c-4.69,0 -7.215,-1.924 -7.215,-8.298l0,-35.235l16.234,0c0,-4.449 0.121,-7.095 0.361,-9.861l-16.595,0l0,-15.753l-9.981,2.645l-1.203,13.108l-8.057,0l-3.007,9.861l10.944,0l0,36.077c0,11.184 4.81,17.557 15.994,17.557c4.088,0 9.139,-1.202 11.905,-3.367l0.481,-9.861Z" style="fill-rule:nonzero;"/><path d="M540.457,103.127c-0.24,-3.487 -0.481,-9.019 -0.481,-13.709l0,-27.418c0,-13.95 -6.734,-21.887 -19.602,-21.887c-8.057,0 -17.196,5.412 -22.127,13.349l0,-31.868c0,-4.81 0.241,-11.665 0.601,-14.792c-3.727,0.722 -8.417,1.203 -12.626,1.564c0.481,5.892 0.721,13.949 0.721,22.127l0,50.628c0,7.936 -0.24,16.234 -0.721,22.006l12.626,0c-0.481,-3.607 -0.601,-8.297 -0.601,-12.987l0,-22.849c0,-7.817 9.861,-17.076 19.121,-17.076c8.177,0 11.184,5.772 11.184,14.19l0,15.994c0,7.817 -0.241,16.956 -0.842,22.728l12.747,0Z" style="fill-rule:nonzero;"/><path d="M575.572,19.309c0,-3.848 -3.007,-7.456 -7.456,-7.456c-4.69,0 -7.817,3.728 -7.817,8.178c0,3.727 2.886,7.335 7.456,7.335c4.69,0 7.817,-3.728 7.817,-8.057Zm-1.924,83.818c-0.361,-3.487 -0.602,-8.297 -0.602,-12.987l0,-34.273c0,-4.209 0.241,-11.425 0.602,-14.551c-3.728,0.361 -8.418,0.601 -12.747,0.601c0.601,5.772 0.841,15.032 0.841,22.728l0,16.476c0,7.936 -0.24,16.234 -0.841,22.006l12.747,0Z" style="fill-rule:nonzero;"/><path d="M648.687,103.127c-0.24,-3.487 -0.481,-9.019 -0.481,-13.709l0,-27.418c0,-13.95 -6.734,-21.887 -19.601,-21.887c-8.178,0 -17.317,5.532 -22.248,13.469l-0.842,-12.266c-3.727,0.361 -6.854,0.601 -11.063,0.601c0.481,5.772 0.721,15.032 0.721,22.728l0,15.754c0,7.817 -0.24,16.956 -0.721,22.728l12.627,0c-0.481,-3.607 -0.601,-9.019 -0.601,-13.709l0,-22.127c0,-7.817 9.86,-17.076 19.12,-17.076c8.178,0 11.184,5.772 11.184,14.19l0,15.994c0,7.817 -0.241,16.956 -0.842,22.728l12.747,0Z" style="fill-rule:nonzero;"/><path d="M706.17,62.962c0,7.456 -5.652,13.709 -14.311,13.709c-8.057,0 -13.589,-4.81 -13.589,-13.95c0,-7.095 5.773,-13.709 14.311,-13.709c8.297,0 13.589,5.412 13.589,13.95Zm15.513,47.381c0,-11.064 -9.982,-15.634 -26.697,-15.634l-3.127,-0.12c-10.703,0 -13.709,-1.443 -13.709,-4.69c0,-1.804 1.804,-3.848 4.81,-5.652c2.405,0.842 5.051,1.203 7.937,1.203c14.792,0 25.855,-9.861 25.855,-23.691c0,-4.93 -2.405,-11.304 -7.576,-15.873c1.804,-4.089 4.931,-5.773 11.184,-4.931l0.601,-10.101c-9.5,-1.323 -15.513,2.284 -18.159,11.183c-2.765,-1.202 -6.012,-1.804 -9.74,-1.804c-14.671,0 -25.615,10.583 -25.615,23.691c0,6.975 3.488,13.348 9.26,17.317c-5.291,3.006 -8.538,6.373 -8.538,11.063c0,3.969 3.006,6.855 7.335,8.779c-8.418,4.209 -13.348,9.139 -13.348,15.994c0,8.779 9.139,15.874 26.096,15.874c19.24,0 33.431,-10.462 33.431,-22.608Zm-32.83,13.709c-10.823,0 -15.994,-4.089 -15.994,-8.659c0,-3.848 3.487,-8.177 11.785,-11.785c2.405,0.241 5.171,0.481 7.576,0.481l2.405,0c11.064,0 16.475,2.646 16.475,7.817c0,6.614 -8.899,12.146 -22.247,12.146Z" style="fill-rule:nonzero;"/><path d="M815.963,15.341c-7.335,0.36 -15.753,0.601 -24.412,0.601c-8.658,0 -17.076,-0.241 -24.291,-0.601c0.601,5.892 0.841,22.608 0.841,30.545l0,27.418c0,8.057 -0.24,23.931 -0.841,29.823l12.627,0c-0.361,-3.487 -0.361,-12.987 -0.361,-17.798l0,-22.127l29.462,0.241c0,-3.367 0.121,-7.095 0.361,-9.861l-29.823,0.12l0,-20.203c0,-1.924 0,-5.652 0.12,-8.177c3.608,-0.12 8.177,-0.12 11.905,-0.12c8.779,0 16.355,0.12 23.571,0.24c0.12,-3.728 0.36,-6.734 0.841,-10.101Z" style="fill-rule:nonzero;"/><path d="M883.427,71.26c0,-16.836 -11.545,-31.147 -29.703,-31.147c-18.881,0 -31.267,15.152 -31.267,34.273c0,16.716 11.545,31.026 29.583,31.026c19.001,0 31.387,-15.032 31.387,-34.152Zm-11.304,1.563c0,12.506 -7.336,22.608 -19.482,22.608c-11.424,0 -19,-7.937 -19,-22.969c0,-12.386 7.696,-22.247 19.602,-22.247c10.582,0 18.88,8.057 18.88,22.608Z" style="fill-rule:nonzero;"/><path d="M954.739,103.127c-0.602,-6.133 -0.962,-14.551 -0.962,-22.247l0,-25.133c0,-4.69 0.24,-10.944 0.721,-14.431c-3.728,0.361 -8.418,0.601 -12.867,0.601c0.601,5.893 0.842,14.912 0.842,22.488l0,15.633c0,7.817 -10.342,15.393 -17.438,15.393c-9.259,0 -12.867,-5.412 -12.867,-15.874l0,-23.81c0,-4.69 0.12,-10.944 0.481,-14.431c-3.728,0.361 -8.057,0.601 -12.627,0.601c0.601,5.893 0.842,14.912 0.842,22.488l0,17.437c0,16.235 7.696,23.69 21.285,23.69c6.374,0 15.754,-4.569 20.684,-12.626l1.443,10.221l10.463,0Z" style="fill-rule:nonzero;"/><path d="M1029.54,103.127c-0.241,-3.487 -0.481,-9.019 -0.481,-13.709l0,-27.418c0,-13.95 -6.735,-21.887 -19.602,-21.887c-8.177,0 -17.317,5.532 -22.247,13.469l-0.842,-12.266c-3.728,0.361 -6.855,0.601 -11.064,0.601c0.481,5.772 0.722,15.032 0.722,22.728l0,15.754c0,7.817 -0.241,16.956 -0.722,22.728l12.627,0c-0.481,-3.607 -0.601,-9.019 -0.601,-13.709l0,-22.127c0,-7.817 9.861,-17.076 19.121,-17.076c8.177,0 11.183,5.772 11.183,14.19l0,15.994c0,7.817 -0.24,16.956 -0.841,22.728l12.747,0Z" style="fill-rule:nonzero;"/><path d="M1078.24,50.094c6.133,0 11.064,2.285 14.431,5.773l0,30.064c-3.127,5.772 -9.38,9.62 -16.234,9.62c-10.222,0 -18.881,-7.456 -18.881,-22.007c0,-12.867 7.697,-23.45 20.684,-23.45Zm-0.24,-9.981c-18.279,0 -31.748,15.273 -31.748,34.874c0,17.077 10.823,30.425 28.14,30.425c7.576,0 15.152,-4.089 19.121,-9.26l0.962,6.975l10.462,0c-0.601,-5.892 -0.842,-13.709 -0.842,-21.285l0,-60.248c0,-4.81 0.121,-11.665 0.481,-14.792c-3.727,0.722 -8.297,1.203 -12.747,1.564c0.602,5.892 0.722,13.949 0.722,22.127l0.12,14.19c-3.487,-2.646 -9.019,-4.57 -14.671,-4.57Z" style="fill-rule:nonzero;"/><path d="M1142.58,95.792c-7.576,0 -10.582,-4.089 -10.582,-9.38c0,-6.855 5.171,-12.507 20.684,-12.507c2.044,0 3.968,0.12 6.133,0.361l-0.361,5.892c-0.361,9.02 -6.975,15.634 -15.874,15.634Zm17.077,-1.924c0.601,7.455 5.171,10.823 10.101,10.823c3.127,0 5.652,-0.962 7.817,-1.924l1.082,-7.937c-1.924,0.721 -3.728,1.082 -5.291,1.082c-3.007,0 -4.209,-1.563 -3.969,-5.652l0.722,-26.456c0.481,-14.311 -7.215,-23.691 -22.608,-23.691c-7.817,0 -14.912,2.165 -21.526,6.013l2.646,9.861c4.329,-3.127 10.823,-5.772 17.076,-5.772c9.5,0 13.589,4.69 13.348,14.43l0,2.165c-2.044,-0.12 -3.968,-0.24 -6.012,-0.24c-21.406,0 -31.988,8.297 -31.988,20.443c0,10.703 7.335,17.918 19.12,17.918c8.659,0 15.994,-4.57 19.482,-11.063Z" style="fill-rule:nonzero;"/><path d="M1224.59,91.703c-2.526,1.684 -6.494,3.127 -9.861,3.127c-4.69,0 -7.215,-1.924 -7.215,-8.298l0,-35.235l16.234,0c0,-4.449 0.12,-7.095 0.361,-9.861l-16.595,0l0,-15.753l-9.982,2.645l-1.202,13.108l-8.057,0l-3.007,9.861l10.943,0l0,36.077c0,11.184 4.811,17.557 15.995,17.557c4.088,0 9.139,-1.202 11.905,-3.367l0.481,-9.861Z" style="fill-rule:nonzero;"/><path d="M1254.9,19.309c0,-3.848 -3.006,-7.456 -7.456,-7.456c-4.689,0 -7.816,3.728 -7.816,8.178c0,3.727 2.886,7.335 7.456,7.335c4.69,0 7.816,-3.728 7.816,-8.057Zm-1.924,83.818c-0.361,-3.487 -0.601,-8.297 -0.601,-12.987l0,-34.273c0,-4.209 0.24,-11.425 0.601,-14.551c-3.728,0.361 -8.418,0.601 -12.747,0.601c0.601,5.772 0.842,15.032 0.842,22.728l0,16.476c0,7.936 -0.241,16.234 -0.842,22.006l12.747,0Z" style="fill-rule:nonzero;"/><path d="M1331.02,71.26c0,-16.836 -11.544,-31.147 -29.703,-31.147c-18.88,0 -31.266,15.152 -31.266,34.273c0,16.716 11.544,31.026 29.583,31.026c19,0 31.386,-15.032 31.386,-34.152Zm-11.304,1.563c0,12.506 -7.335,22.608 -19.481,22.608c-11.424,0 -19.001,-7.937 -19.001,-22.969c0,-12.386 7.697,-22.247 19.602,-22.247c10.583,0 18.88,8.057 18.88,22.608Z" style="fill-rule:nonzero;"/><path d="M1402.21,103.127c-0.241,-3.487 -0.481,-9.019 -0.481,-13.709l0,-27.418c0,-13.95 -6.735,-21.887 -19.602,-21.887c-8.177,0 -17.317,5.532 -22.247,13.469l-0.842,-12.266c-3.728,0.361 -6.855,0.601 -11.064,0.601c0.481,5.772 0.722,15.032 0.722,22.728l0,15.754c0,7.817 -0.241,16.956 -0.722,22.728l12.627,0c-0.481,-3.607 -0.601,-9.019 -0.601,-13.709l0,-22.127c0,-7.817 9.861,-17.076 19.121,-17.076c8.177,0 11.184,5.772 11.184,14.19l0,15.994c0,7.817 -0.241,16.956 -0.842,22.728l12.747,0Z" style="fill-rule:nonzero;"/></g></svg>