<?xml version="1.0" encoding="UTF-8" standalone="no"?><!DOCTYPE svg PUBLIC "-//W3C//DTD SVG 1.1//EN" "http://www.w3.org/Graphics/SVG/1.1/DTD/svg11.dtd"><svg width="100%" height="100%" viewBox="0 0 777 201" version="1.1" xmlns="http://www.w3.org/2000/svg" xmlns:xlink="http://www.w3.org/1999/xlink" xml:space="preserve" xmlns:serif="http://www.serif.com/" style="fill-rule:evenodd;clip-rule:evenodd;stroke-linejoin:round;stroke-miterlimit:1.41421;"><rect id="Horizontal-Light" serif:id="Horizontal Light" x="0.218" y="0.201" width="776.09" height="200" style="fill:none;"/><clipPath id="_clip1"><rect x="0.218" y="0.201" width="776.09" height="200"/></clipPath><g clip-path="url(#_clip1)"><g id="Layer-1" serif:id="Layer 1"><path d="M164.14,44.651l0,10.569l-9.643,-4.631l0,-4.172l9.643,-1.766Z" style="fill:#fff;fill-rule:nonzero;"/><path d="M144.856,33.537l0,21.807l-28.927,-11.792l0,-3.656l8.923,-1.766l0,7.52l10.53,-1.413l0,-8.227l9.474,-2.473Z" style="fill:#fff;fill-rule:nonzero;"/><path d="M106.285,11.314l0,16.126l-9.644,-4.631l0,-7.962l9.644,-3.533Z" style="fill:#fff;fill-rule:nonzero;"/><path d="M56.872,182.928l30.129,17.273l0,-29.351l-0.233,-0.094l-29.896,12.172Z" style="fill:#fff;fill-rule:nonzero;"/><path d="M0.218,114.096l0,26.879l86.536,-35.233l0.247,0.1l0,-26.89l-0.233,-0.094l-86.55,35.238Z" style="fill:#fff;fill-rule:nonzero;"/><path d="M87.001,151.792l0,-26.892l-0.232,-0.094l-76.763,31.254l27.415,15.717l49.332,-20.086l0.248,0.101Z" style="fill:#fff;fill-rule:nonzero;"/><path d="M87.001,0.201l-9.64,5.557l0,17.051l-9.644,4.632l0,-16.127l-9.643,5.553l0,26.685l-28.928,11.791l0,-21.806l-9.64,5.557l0,11.495l-9.645,4.631l0,-10.57l-2.903,1.672l-6.74,3.921l0,44.783l86.536,-35.233l0.247,0.101l0,-59.693Z" style="fill:#fff;fill-rule:nonzero;"/><path d="M19.506,46.417l0,4.172l-9.644,4.631l0,-10.569l9.644,1.766Z" style="fill:#808080;fill-rule:nonzero;"/><path d="M58.074,39.896l0,3.656l-28.928,11.792l0,-21.807l9.475,2.473l0,8.227l10.53,1.413l0,-7.52l8.923,1.766Z" style="fill:#808080;fill-rule:nonzero;"/><path d="M77.361,14.847l0,7.962l-9.644,4.631l0,-16.126l9.644,3.533Z" style="fill:#808080;fill-rule:nonzero;"/><path d="M87.002,78.952l0,26.891l86.783,35.171l0,-26.891l-86.783,-35.171Z" style="fill:#808080;fill-rule:nonzero;"/><path d="M163.633,155.958l-76.631,-31.057l0,26.891l49.265,19.966l27.366,-15.8Z" style="fill:#808080;fill-rule:nonzero;"/><path d="M87.002,0.202l0,59.693l86.783,35.171l0,-44.858l-9.644,-5.557l0,10.57l-9.644,-4.632l0,-11.494l-9.64,-5.557l0,21.806l-28.928,-11.791l0,-26.685l-9.644,-5.553l0,16.126l-9.643,-4.631l0,-17.051l-9.64,-5.557Z" style="fill:#808080;fill-rule:nonzero;"/><path d="M87.002,200.201l29.869,-17.246l-29.869,-12.105l0,29.351Z" style="fill:#808080;fill-rule:nonzero;"/></g><g id="Layer1"><g transform="matrix(1,0,0,1,-35.2012,13.7762)"><path d="M305.686,151.01l14.4,-3.24c-6.12,-6.3 -29.88,-29.7 -37.62,-38.34l-10.26,-10.62l44.1,-42.3c-4.86,0.54 -12.24,0.54 -17.64,0.54c-3.96,5.22 -32.22,31.86 -40.32,40.68l0,-69.66c0,-8.28 0.18,-19.8 0.54,-23.22c-4.32,0.9 -10.08,1.44 -15.12,1.98c0.9,9.18 1.08,19.98 1.08,33.66l0,75.06c0,11.7 -0.18,24.48 -1.08,33.12l15.12,0c-0.54,-5.04 -0.54,-12.78 -0.54,-19.8l0,-26.82l47.34,48.96Z" style="fill:#fff;fill-rule:nonzero;"/><path d="M358.066,140.21c-12.6,0 -17.64,-7.2 -17.64,-15.84c0,-10.44 7.74,-19.98 33.12,-19.98c3.6,0 7.38,0.18 11.16,0.54l-0.18,9c-0.72,15.12 -11.88,26.28 -26.46,26.28Zm27.72,-7.38c0,13.32 6.48,17.82 13.68,17.82c4.32,0 7.74,-1.44 10.62,-2.88l1.26,-9.54c-2.7,1.08 -5.4,1.98 -7.92,1.98c-4.5,0 -6.48,-2.52 -6.3,-10.08l1.26,-39.6c0.54,-22.14 -11.34,-35.1 -32.76,-35.1c-11.16,0 -21.42,3.24 -31.14,8.82l3.24,11.88c6.84,-4.86 16.56,-8.64 25.92,-8.64c14.94,0 21.96,8.1 21.6,24.48l-0.18,3.96c-3.6,-0.36 -7.02,-0.54 -11.16,-0.54c-32.4,0 -46.62,12.96 -46.62,29.88c0,14.94 10.26,25.92 28.08,25.92c13.5,0 25.2,-7.74 30.42,-18.36Z" style="fill:#fff;fill-rule:nonzero;"/><path d="M455.806,55.61c-18.18,0 -31.5,11.34 -31.5,26.1c0,28.62 48.06,23.22 48.06,43.38c0,9.54 -9.36,14.76 -20.52,14.76c-10.8,0 -21.78,-4.14 -29.52,-9.72l-0.9,14.04c7.2,4.68 19.62,7.74 29.88,7.74c18.18,0 34.38,-10.8 34.38,-28.98c0,-27.9 -48.24,-23.94 -48.24,-41.94c0,-9.18 8.46,-13.5 18.18,-13.5c8.64,0 16.2,2.88 22.14,7.02l4.68,-11.88c-5.94,-3.6 -15.48,-7.02 -26.64,-7.02Z" style="fill:#fff;fill-rule:nonzero;"/><path d="M553.006,134.63c-3.78,2.52 -9.18,4.68 -14.58,4.68c-7.74,0 -12.06,-3.6 -12.06,-13.5l0,-56.7l24.66,0c0,-5.22 0.18,-8.28 0.72,-11.7l-25.38,0l0,-23.04l-11.7,3.24l-1.44,19.8l-12.42,0l-3.78,11.7l16.02,0l0,57.96c0,15.48 6.84,24.3 22.5,24.3c6.3,0 12.96,-1.98 16.74,-4.86l0.72,-11.88Z" style="fill:#fff;fill-rule:nonzero;"/><path d="M649.666,99.17c0,-24.3 -11.7,-43.74 -37.44,-43.74c-27.36,0 -45.36,22.32 -45.36,50.58c0,25.38 15.66,45.9 44.1,45.9c14.22,0 24.84,-4.86 34.2,-11.34l0.72,-14.04c-9,7.38 -19.26,13.5 -33.3,13.5c-19.62,0 -31.68,-11.88 -32.22,-33.66l60.3,-1.62l9,-5.58Zm-68.94,-3.06c2.52,-16.2 13.68,-29.16 30.6,-29.16c15.66,0 23.94,9.9 25.56,27.72l-56.16,1.44Z" style="fill:#fff;fill-rule:nonzero;"/><path d="M686.206,148.67c-0.54,-5.22 -0.54,-12.78 -0.54,-19.8l0,-100.8c0,-8.28 0.18,-19.8 0.54,-23.22c-4.32,0.9 -10.08,1.44 -15.12,1.98c0.9,9.18 1.08,19.98 1.08,33.66l0,75.06c0,11.7 -0.18,24.48 -1.08,33.12l15.12,0Z" style="fill:#fff;fill-rule:nonzero;"/><path d="M795.286,101.33c0,-25.2 -17.28,-45.9 -44.1,-45.9c-28.08,0 -46.44,22.32 -46.44,50.58c0,25.2 17.28,45.9 43.92,45.9c28.26,0 46.62,-22.14 46.62,-50.58Zm-13.32,1.98c0,20.34 -12.6,36.72 -32.4,36.72c-18.72,0 -31.5,-12.96 -31.5,-36.36c0,-19.98 12.96,-36.18 32.4,-36.18c17.64,0 31.5,12.78 31.5,35.82Z" style="fill:#fff;fill-rule:nonzero;"/></g></g></g></svg>