<?xml version="1.0" encoding="UTF-8" standalone="no"?><!DOCTYPE svg PUBLIC "-//W3C//DTD SVG 1.1//EN" "http://www.w3.org/Graphics/SVG/1.1/DTD/svg11.dtd"><svg width="100%" height="100%" viewBox="0 0 2599 815" version="1.1" xmlns="http://www.w3.org/2000/svg" xmlns:xlink="http://www.w3.org/1999/xlink" xml:space="preserve" xmlns:serif="http://www.serif.com/" style="fill-rule:evenodd;clip-rule:evenodd;stroke-miterlimit:3;"><rect id="Horizontal-Blue" serif:id="Horizontal Blue" x="0.56" y="0" width="2598.28" height="814.961" style="fill:none;"/><clipPath id="_clip1"><rect x="0.56" y="0" width="2598.28" height="814.961"/></clipPath><g clip-path="url(#_clip1)"><g id="Layer1"><path d="M1080.42,623.78l72,-4.8c-34.2,-37.2 -78.6,-85.8 -111.6,-123l-88.2,-97.2l192.6,-202.8l-76.2,0c-33,37.2 -70.2,79.2 -102.6,114.6l-77.4,84.6l-0,-112.2c-0,-23.4 0.6,-71.4 1.8,-88.8c-19.2,2.4 -41.4,3 -64.8,3c3,28.8 4.2,106.2 4.2,144.6l-0,132.6c-0,39 -1.2,115.8 -4.2,144.6l64.8,0c-1.2,-16.8 -1.8,-63.6 -1.8,-86.4l-0,-123l191.4,214.2Z" style="fill:#2880b9;fill-rule:nonzero;"/><path d="M1248.42,627.38c38.4,0 70.2,-19.8 86.4,-48c3,31.2 24,46.8 46.8,46.8c14.4,0 25.8,-4.2 36,-8.4l5.4,-38.4c-9,3 -16.8,4.8 -24,4.8c-13.2,0 -18,-7.2 -17.4,-24l3.6,-118.8c1.8,-63.6 -31.8,-106.8 -103.2,-106.8c-35.4,0 -67.8,9.6 -97.8,27l12.6,48c19.2,-14.4 48.6,-26.4 76.2,-26.4c42,0 59.4,20.4 58.2,61.8l-0.6,9c-7.8,-0.6 -15.6,-1.2 -23.4,-1.2c-96,0 -145.8,37.2 -145.8,93c-0,49.2 34.2,81.6 87,81.6Zm12,-44.4c-33,0 -45.6,-17.4 -45.6,-40.2c-0,-30 23.4,-54.6 90.6,-54.6c8.4,0 16.2,0.6 24.6,1.2l-1.2,27c-1.8,38.4 -30,66.6 -68.4,66.6Z" style="fill:#2880b9;fill-rule:nonzero;"/><path d="M1554.42,334.58c-58.8,0 -100.2,37.8 -100.2,84.6c-0,89.4 141.6,73.2 141.6,127.8c-0,22.2 -22.8,34.2 -53.4,34.2c-31.8,0 -69,-13.8 -93,-33l-3,57c22.2,15 64.8,24.6 94.8,24.6c58.8,0 108.6,-34.8 108.6,-91.8c-0,-86.4 -142.2,-76.8 -142.2,-121.2c-0,-25.2 22.8,-33.6 46.8,-33.6c24.6,0 49.2,8.4 67.8,22.2l18.6,-48c-19.2,-12 -51.6,-22.8 -86.4,-22.8Z" style="fill:#2880b9;fill-rule:nonzero;"/><path d="M1853.22,563.78c-12,7.8 -30,14.4 -45,14.4c-20.4,0 -30.6,-7.8 -30.6,-36l-0,-153.6l72,0c-0,-21.6 0.6,-34.8 1.8,-48l-73.8,0l-0,-72l-49.2,13.2l-5.4,58.8l-36,0l-14.4,48l49.8,0l-0,157.2c-0,52.2 21.6,81.6 73.8,81.6c18,0 42,-5.4 54.6,-15.6l2.4,-48Z" style="fill:#2880b9;fill-rule:nonzero;"/><path d="M2141.82,470.78c-0,-75 -33.6,-136.2 -115.2,-136.2c-85.2,0 -139.8,68.4 -139.8,154.8c-0,75 43.8,140.4 136.2,140.4c39.6,0 72.6,-12.6 103.2,-33l2.4,-56.4c-27,22.2 -58.2,40.8 -100.2,40.8c-53.4,0 -82.2,-28.2 -86.4,-84l163.8,-4.8l36,-21.6Zm-198.6,-15c7.8,-42.6 36,-75 80.4,-75c41.4,0 60.6,24.6 66.6,70.8l-147,4.2Z" style="fill:#2880b9;fill-rule:nonzero;"/><path d="M2255.22,618.98c-1.8,-15.6 -2.4,-37.2 -2.4,-58.2l-0,-310.2c-0,-20.4 0.6,-49.8 2.4,-65.4c-18,3.6 -40.2,6 -61.8,7.8c3,25.8 4.2,64.2 4.2,99l-0,228.6c-0,35.4 -1.2,72.6 -4.2,98.4l61.8,0Z" style="fill:#2880b9;fill-rule:nonzero;"/><path d="M2586.42,474.98c-0,-75 -51.6,-140.4 -133.8,-140.4c-85.2,0 -141,68.4 -141,154.8c-0,75 51.6,140.4 133.2,140.4c85.8,0 141.6,-68.4 141.6,-154.8Zm-54.6,7.8c-0,54.6 -31.2,98.4 -84,98.4c-49.2,0 -81.6,-34.2 -81.6,-100.8c-0,-54 33,-97.2 84,-97.2c45.6,0 81.6,35.4 81.6,99.6Z" style="fill:#2880b9;fill-rule:nonzero;"/></g><g><g id="Left-fill" serif:id="Left fill"><path d="M242.776,728.501l123.368,70.726l-0,-120.195l-123.368,49.469Z" style="fill:#2880b9;fill-rule:nonzero;"/><path d="M366.144,301.808l-354.331,144.849l0,110.061l354.331,-144.267l-0,-110.643Z" style="fill:#2880b9;fill-rule:nonzero;"/><path d="M366.144,600.977l-0,-109.596l-314.252,127.485l112.254,64.356l201.998,-82.245Z" style="fill:#2880b9;fill-rule:nonzero;"/><path d="M366.144,15.677l-70.866,28.97l-0,97.976l-70.866,28.97l-0,-73.239l-70.867,28.97l0,73.239l-70.866,28.97l0,-73.239l-70.866,28.97l0,183.299l354.331,-144.267l-0,-208.619Z" style="fill:#2880b9;fill-rule:nonzero;"/></g><g id="Outline"><path d="M366.144,799.227l-123.368,-70.726l123.368,-49.469l123.368,49.525l-123.368,70.67Z" style="fill:none;stroke:#2880b9;stroke-width:20.83px;"/><path d="M366.144,799.227l-0,-118.053" style="fill:none;stroke:#2880b9;stroke-width:20.83px;"/><path d="M366.144,412.451l-354.331,144.267l0,-110.061l354.331,-144.849l354.331,144.905l-0,110.061l-354.331,-144.267l0.137,-110.643" style="fill:none;stroke:#2880b9;stroke-width:20.83px;"/><path d="M568.141,683.278l-201.997,-82.301l-201.998,82.245l-112.254,-64.356l314.114,-127.429l314.39,127.485l-112.255,64.356Z" style="fill:none;stroke:#2880b9;stroke-width:20.83px;"/><path d="M366.006,491.437l0.4,109.647l-0.4,-109.647Z" style="fill:none;stroke:#2880b9;stroke-width:20.83px;"/><path d="M366.144,15.677l-70.866,28.97l-0,97.976l-70.866,28.97l-0,-73.239l-70.867,28.97l0,73.239l-70.866,28.97l0,-73.239l-70.866,28.97l0,183.299l354.331,-144.267l354.331,144.323l-0,-183.355l-70.867,-28.97l0,73.295l-70.866,-28.97l0,-73.295l-70.866,-28.97l0,73.295l-70.866,-28.969l-0,-98.033l-70.866,-28.97Z" style="fill:none;stroke:#2880b9;stroke-width:20.83px;"/><path d="M366.144,15.677l-0,208.619" style="fill:none;stroke:#2880b9;stroke-width:20.83px;"/></g></g></g></svg>