<?xml version="1.0" encoding="UTF-8" standalone="no"?><!DOCTYPE svg PUBLIC "-//W3C//DTD SVG 1.1//EN" "http://www.w3.org/Graphics/SVG/1.1/DTD/svg11.dtd"><svg width="100%" height="100%" viewBox="0 0 741 201" version="1.1" xmlns="http://www.w3.org/2000/svg" xmlns:xlink="http://www.w3.org/1999/xlink" xml:space="preserve" style="fill-rule:evenodd;clip-rule:evenodd;stroke-linejoin:round;stroke-miterlimit:1.41421;"><rect id="Page-3" x="0.102" y="0" width="740.667" height="200" style="fill:none;"/><clipPath id="_clip1"><rect x="0.102" y="0" width="740.667" height="200"/></clipPath><g clip-path="url(#_clip1)"><g id="Layer-1"><path d="M164.024,44.45l0,10.569l-9.643,-4.631l0,-4.172l9.643,-1.766Z" style="fill:url(#_Linear2);fill-rule:nonzero;"/><path d="M144.74,33.336l0,21.807l-28.927,-11.792l0,-3.656l8.923,-1.766l0,7.52l10.53,-1.413l0,-8.227l9.474,-2.473Z" style="fill:#2880ba;fill-rule:nonzero;"/><path d="M106.169,11.113l0,16.126l-9.644,-4.631l0,-7.962l9.644,-3.533Z" style="fill:#2880ba;fill-rule:nonzero;"/><path d="M56.756,182.727l30.129,17.273l0,-29.351l-0.233,-0.094l-29.896,12.172Z" style="fill:#3b97d3;fill-rule:nonzero;"/><path d="M0.102,113.895l0,26.879l86.536,-35.233l0.247,0.1l0,-26.89l-0.233,-0.094l-86.55,35.238Z" style="fill:#3b97d3;fill-rule:nonzero;"/><path d="M86.885,151.591l0,-26.892l-0.232,-0.094l-76.763,31.254l27.415,15.717l49.332,-20.086l0.248,0.101Z" style="fill:#3b97d3;fill-rule:nonzero;"/><path d="M86.885,0l-9.64,5.557l0,17.051l-9.644,4.632l0,-16.127l-9.643,5.553l0,26.685l-28.928,11.791l0,-21.806l-9.64,5.557l0,11.495l-9.645,4.631l0,-10.57l-2.903,1.672l-6.74,3.921l0,44.783l86.536,-35.233l0.247,0.101l0,-59.693Z" style="fill:#3b97d3;fill-rule:nonzero;"/><path d="M19.39,46.216l0,4.172l-9.644,4.631l0,-10.569l9.644,1.766Z" style="fill:#2c3e50;fill-rule:nonzero;"/><path d="M57.957,39.695l0,3.656l-28.928,11.792l0,-21.807l9.475,2.473l0,8.227l10.53,1.413l0,-7.52l8.923,1.766Z" style="fill:#2c3e50;fill-rule:nonzero;"/><path d="M77.245,14.646l0,7.962l-9.644,4.631l0,-16.126l9.644,3.533Z" style="fill:#2c3e50;fill-rule:nonzero;"/><path d="M86.885,78.751l0,26.891l86.783,35.171l0,-26.891l-86.783,-35.171Z" style="fill:#2c3e50;fill-rule:nonzero;"/><path d="M163.516,155.756l-76.631,-31.057l0,26.891l49.265,19.966l27.366,-15.8Z" style="fill:#2c3e50;fill-rule:nonzero;"/><path d="M86.885,0l0,59.693l86.783,35.171l0,-44.858l-9.644,-5.557l0,10.57l-9.644,-4.632l0,-11.494l-9.64,-5.557l0,21.806l-28.928,-11.791l0,-26.685l-9.644,-5.553l0,16.126l-9.643,-4.631l0,-17.051l-9.64,-5.557Z" style="fill:#2c3e50;fill-rule:nonzero;"/><path d="M86.885,200l29.869,-17.246l-29.869,-12.105l0,29.351Z" style="fill:#2c3e50;fill-rule:nonzero;"/></g><g id="Layer1"><path d="M271.621,162.4l15.624,0l-36.624,-54.264l33.096,-34.104l-15.456,0l-45.528,45.864l0,-82.152l-13.104,0l0,124.656l13.104,0l0,-25.536l18.648,-19.32l30.24,44.856Z" style="fill:#2c3e50;fill-rule:nonzero;"/><path d="M367.717,162.4l-0.168,-58.464c-0.168,-18.816 -12.264,-30.408 -34.104,-30.408c-15.12,0 -24.696,4.368 -36.12,11.928l5.544,9.24c9.24,-6.552 18.312,-10.248 28.056,-10.248c15.624,0 23.688,7.896 23.688,20.832l0,5.544l-29.064,0c-20.832,0.168 -33.096,9.912 -33.096,25.368c0,15.12 11.76,26.712 30.072,26.712c14.112,0 25.368,-4.704 32.424,-14.28l0,13.776l12.768,0Zm-42.672,-10.416c-12.432,0 -20.328,-6.552 -20.328,-16.296c0,-9.912 7.728,-14.448 22.512,-14.448l27.552,0l0,10.752c-3.36,12.6 -14.784,19.992 -29.736,19.992Z" style="fill:#2c3e50;fill-rule:nonzero;"/><path d="M438.613,91.504l5.04,-10.08c-7.392,-4.872 -17.64,-8.064 -28.224,-8.064c-16.128,0 -30.744,7.224 -30.744,24.024c-0.168,31.248 49.392,20.328 48.888,41.832c-0.168,8.904 -8.568,12.936 -18.984,12.936c-10.416,0 -21.84,-4.2 -29.4,-11.256l-5.04,9.576c8.4,8.064 21.336,12.432 33.936,12.432c16.968,0 32.424,-7.728 32.424,-25.032c0,-31.752 -49.392,-21.504 -49.392,-41.496c0,-8.4 7.56,-11.928 17.472,-11.928c8.232,0 17.136,2.688 24.024,7.056Z" style="fill:#2c3e50;fill-rule:nonzero;"/><path d="M504.973,146.272c-4.872,2.856 -9.576,4.368 -14.112,4.536c-7.56,0 -11.76,-4.368 -11.76,-15.12l0,-48.72l28.056,0l0,-10.248l-28.056,0l0,-23.184l-12.936,0l0,23.184l-12.768,0l0,10.248l12.768,0l0,50.904c0,17.472 9.576,25.2 22.512,25.032c7.056,0 13.776,-2.352 19.992,-6.552l-3.696,-10.08Z" style="fill:#2c3e50;fill-rule:nonzero;"/><path d="M558.397,73.528c-25.704,0.168 -43.848,18.312 -43.848,44.688c0,26.376 17.976,44.688 44.016,44.688c14.784,0 27.216,-5.376 35.616,-14.616l-7.224,-7.56c-6.888,7.224 -16.464,11.256 -27.384,11.256c-17.304,0 -29.904,-11.424 -32.088,-28.896l72.24,0c1.344,-29.904 -12.768,-49.56 -41.328,-49.56Zm-30.912,39.144c1.848,-17.136 13.944,-28.224 30.912,-28.224c17.304,0 28.728,11.088 29.568,28.224l-60.48,0Z" style="fill:#2c3e50;fill-rule:nonzero;"/><rect x="618.037" y="37.744" width="13.104" height="124.656" style="fill:#2c3e50;fill-rule:nonzero;"/><path d="M694.813,73.528c-26.208,0 -44.856,18.312 -44.856,44.52c0,26.544 18.648,44.856 44.856,44.856c26.208,0 44.856,-18.312 44.856,-44.856c0,-26.208 -18.648,-44.52 -44.856,-44.52Zm0,11.592c18.48,0 31.752,13.608 31.752,33.096c0,19.824 -13.272,33.264 -31.752,33.264c-18.48,0 -31.752,-13.44 -31.752,-33.264c0,-19.488 13.272,-33.096 31.752,-33.096Z" style="fill:#2c3e50;fill-rule:nonzero;"/></g></g><defs><linearGradient id="_Linear2" x1="0" y1="0" x2="1" y2="0" gradientUnits="userSpaceOnUse" gradientTransform="matrix(9.64368,0,0,9.64368,154.381,49.7343)"><stop offset="0%" style="stop-color:#3b97d3;stop-opacity:1"/><stop offset="100%" style="stop-color:#2880ba;stop-opacity:1"/></linearGradient></defs></svg>