<?xml version="1.0" encoding="UTF-8" standalone="no"?><!DOCTYPE svg PUBLIC "-//W3C//DTD SVG 1.1//EN" "http://www.w3.org/Graphics/SVG/1.1/DTD/svg11.dtd"><svg width="100%" height="100%" viewBox="0 0 3096 804" version="1.1" xmlns="http://www.w3.org/2000/svg" xmlns:xlink="http://www.w3.org/1999/xlink" xml:space="preserve" xmlns:serif="http://www.serif.com/" style="fill-rule:evenodd;clip-rule:evenodd;stroke-miterlimit:3;"><rect id="Horizontal-Light" serif:id="Horizontal Light" x="0.56" y="0.839" width="3094.49" height="803.15" style="fill:none;"/><clipPath id="_clip1"><rect x="0.56" y="0.839" width="3094.49" height="803.15"/></clipPath><g clip-path="url(#_clip1)"><g id="Layer1"><path d="M1154.51,670.477l58.583,-12.667c-25.333,-26.125 -115.583,-116.375 -147.25,-152l-41.167,-41.958l173.375,-167.833c-19.791,1.583 -49.083,2.375 -71.25,2.375c-17.416,21.375 -126.666,125.875 -158.333,161.5l0,-276.292c0,-32.458 0.792,-77.583 2.375,-91.833c-18.208,3.958 -40.375,6.333 -60.958,7.916c3.166,36.417 3.958,79.167 3.958,133l0,298.459c0,45.916 -0.792,96.583 -3.958,130.625l60.958,0c-1.583,-19.792 -2.375,-50.667 -2.375,-78.375l0,-105.292l186.042,192.375Z" style="fill:#fff;fill-rule:nonzero;"/><path d="M1347.68,671.269c53.834,0 99.75,-30.084 119.542,-72.042c0.792,52.25 26.917,70.458 55.417,70.458c16.625,0 30.875,-5.541 41.958,-11.083l5.542,-39.583c-11.084,4.75 -21.375,7.916 -31.667,7.916c-17.417,0 -25.333,-9.5 -24.542,-38.791l4.75,-156.75c2.375,-87.875 -44.333,-139.334 -129.833,-139.334c-45.125,0 -85.5,12.667 -123.5,34.834l12.667,48.291c26.916,-19 65.708,-34.833 102.916,-34.833c58.584,0 86.292,31.667 83.917,96.583l-0.792,15.042c-13.458,-1.583 -27.708,-2.375 -42.75,-2.375c-128.25,0 -185.25,51.458 -185.25,118.75c0,60.167 41.167,102.917 111.625,102.917Zm11.084,-44.334c-49.084,0 -69.667,-27.708 -69.667,-61.75c0,-41.166 31.667,-78.375 130.625,-78.375c14.25,0 29.292,0.792 43.542,2.375l-0.792,34.834c-2.375,59.375 -46.708,102.916 -103.708,102.916Z" style="fill:#fff;fill-rule:nonzero;"/><path d="M1741.93,292.06c-72.833,0 -125.083,45.917 -125.083,104.5c0,114 190,92.625 190,171.792c0,37.208 -36.417,57 -80.75,57c-42.75,0 -87.083,-16.625 -117.167,-38.792l-3.166,57.792c27.708,18.208 77.583,30.083 118.75,30.083c72.041,0 136.166,-42.75 136.166,-114.791c0,-110.834 -190,-95.792 -190,-165.459c0,-36.416 32.459,-53.041 70.459,-53.041c34.041,0 64.125,11.083 87.875,27.708l19,-48.292c-23.75,-14.25 -61.75,-28.5 -106.084,-28.5Z" style="fill:#fff;fill-rule:nonzero;"/><path d="M2122.72,604.769c-15.042,9.5 -35.625,18.208 -57.792,18.208c-30.083,0 -46.708,-13.458 -46.708,-53.042l0,-222.458l97.375,0c0,-21.375 0.792,-34.042 2.375,-47.5l-99.75,0l0,-91.833l-48.292,12.666l-5.541,79.167l-49.084,0l-15.041,47.5l63.333,0l0,228c0,61.75 27.708,97.375 89.458,97.375c25.334,0 52.25,-7.917 67.292,-19.792l2.375,-48.291Z" style="fill:#fff;fill-rule:nonzero;"/><path d="M2501.93,466.227c0,-97.375 -46.708,-174.167 -148.833,-174.167c-108.458,0 -179.708,88.667 -179.708,201.084c0,99.75 60.958,181.291 174.958,181.291c56.208,0 98.167,-18.208 135.375,-44.333l2.375,-57c-34.833,29.292 -76,53.042 -131.417,53.042c-77.583,0 -124.291,-45.917 -126.666,-131.417l237.5,-6.333l36.416,-22.167Zm-272.333,-13.458c10.292,-63.334 53.833,-114 119.542,-114c62.541,0 94.208,38.791 101.333,108.458l-220.875,5.542Z" style="fill:#fff;fill-rule:nonzero;"/><path d="M2641.26,661.769c-1.584,-20.584 -2.375,-50.667 -2.375,-78.375l0,-400.584c0,-31.666 0.791,-76.791 2.375,-91.041c-18.209,3.958 -40.375,6.333 -60.959,7.916c3.167,36.417 3.959,79.167 3.959,133l0,297.667c0,46.708 -0.792,97.375 -3.959,131.417l60.959,0Z" style="fill:#fff;fill-rule:nonzero;"/><path d="M3083.01,474.144c0,-99.75 -68.875,-182.084 -174.959,-182.084c-111.625,0 -183.666,87.875 -183.666,200.292c0,100.542 68.083,182.083 173.375,182.083c112.416,0 185.25,-87.875 185.25,-200.291Zm-54.625,7.916c0,79.959 -48.292,144.084 -126.667,144.084c-73.625,0 -123.5,-50.667 -123.5,-142.5c0,-79.167 50.667,-143.292 126.667,-143.292c69.666,0 123.5,50.667 123.5,141.708Z" style="fill:#fff;fill-rule:nonzero;"/></g><g><g id="Right-fill" serif:id="Right fill"><path d="M489.512,723.49l-123.368,70.727l0,-120.196l123.368,49.469Z" style="fill:#505050;fill-rule:nonzero;"/><path d="M366.144,296.797l354.331,144.85l0,110.06l-354.331,-144.267l0,-110.643Z" style="fill:#505050;fill-rule:nonzero;"/><path d="M366.144,595.966l0,-109.596l314.252,127.486l-112.255,64.355l-201.997,-82.245Z" style="fill:#505050;fill-rule:nonzero;"/><path d="M366.144,219.286l0,-208.675l70.866,28.97l0,98.032l70.866,28.97l0,-73.295l70.866,28.97l0,73.295l70.866,28.97l0,-73.295l70.867,28.97l0,183.355l-354.331,-144.267Z" style="fill:#505050;fill-rule:nonzero;"/></g><g id="Left-fill" serif:id="Left fill"><path d="M242.776,723.462l123.368,70.727l0,-120.196l-123.368,49.469Z" style="fill:#e0e0e0;fill-rule:nonzero;"/><path d="M366.144,296.769l-354.331,144.85l0,110.06l354.331,-144.267l0,-110.643Z" style="fill:#e0e0e0;fill-rule:nonzero;"/><path d="M366.144,595.938l0,-109.596l-314.252,127.486l112.254,64.355l201.998,-82.245Z" style="fill:#e0e0e0;fill-rule:nonzero;"/><path d="M366.144,10.639l-70.866,28.97l0,97.976l-70.866,28.97l0,-73.239l-70.867,28.97l0,73.239l-70.866,28.97l0,-73.239l-70.866,28.97l0,183.299l354.331,-144.267l0,-208.619Z" style="fill:#e0e0e0;fill-rule:nonzero;"/></g><g id="Outline"><path d="M366.144,794.189l-123.368,-70.727l123.368,-49.469l123.368,49.525l-123.368,70.671Z" style="fill:none;stroke:#f8f8f8;stroke-width:8.33px;"/><path d="M366.144,794.189l0,-118.053" style="fill:none;stroke:#f8f8f8;stroke-width:8.33px;"/><path d="M366.144,407.412l-354.331,144.267l0,-110.06l354.331,-144.85l354.331,144.906l0,110.06l-354.331,-144.267l0.137,-110.643" style="fill:none;stroke:#f8f8f8;stroke-width:8.33px;"/><path d="M568.141,678.239l-201.997,-82.301l-201.998,82.245l-112.254,-64.355l314.114,-127.43l314.39,127.486l-112.255,64.355Z" style="fill:none;stroke:#f8f8f8;stroke-width:8.33px;"/><path d="M366.006,486.398l0.4,109.647l-0.4,-109.647Z" style="fill:none;stroke:#f8f8f8;stroke-width:8.33px;"/><path d="M366.144,10.639l-70.866,28.97l0,97.976l-70.866,28.97l0,-73.239l-70.867,28.97l0,73.239l-70.866,28.97l0,-73.239l-70.866,28.97l0,183.299l354.331,-144.267l354.331,144.323l0,-183.355l-70.867,-28.97l0,73.295l-70.866,-28.97l0,-73.295l-70.866,-28.97l0,73.295l-70.866,-28.97l0,-98.032l-70.866,-28.97Z" style="fill:none;stroke:#f8f8f8;stroke-width:8.33px;"/><path d="M366.144,10.639l0,208.619" style="fill:none;stroke:#f8f8f8;stroke-width:8.33px;"/></g></g></g></svg>