<?xml version="1.0" encoding="UTF-8" standalone="no"?><!DOCTYPE svg PUBLIC "-//W3C//DTD SVG 1.1//EN" "http://www.w3.org/Graphics/SVG/1.1/DTD/svg11.dtd"><svg width="100%" height="100%" viewBox="0 0 3096 804" version="1.1" xmlns="http://www.w3.org/2000/svg" xmlns:xlink="http://www.w3.org/1999/xlink" xml:space="preserve" xmlns:serif="http://www.serif.com/" style="fill-rule:evenodd;clip-rule:evenodd;stroke-miterlimit:3;"><rect id="Horizontal-Blue" serif:id="Horizontal Blue" x="0.56" y="0" width="3094.49" height="803.15" style="fill:none;"/><clipPath id="_clip1"><rect x="0.56" y="0" width="3094.49" height="803.15"/></clipPath><g clip-path="url(#_clip1)"><g id="Layer1"><g transform="matrix(4.16667,0,0,4.16667,-95.68,41.4213)"><g transform="matrix(190,0,0,190,227.206,148.67)"><path d="M0.383,0.011l0.074,-0.016c-0.032,-0.033 -0.146,-0.147 -0.186,-0.192l-0.052,-0.053l0.219,-0.212c-0.025,0.002 -0.062,0.003 -0.09,0.003c-0.022,0.027 -0.16,0.159 -0.2,0.204l0,-0.349c0,-0.041 0.001,-0.098 0.003,-0.116c-0.023,0.005 -0.051,0.008 -0.077,0.01c0.004,0.046 0.005,0.1 0.005,0.168l0,0.377c0,0.058 -0.001,0.122 -0.005,0.165l0.077,0c-0.002,-0.025 -0.003,-0.064 -0.003,-0.099l0,-0.133l0.235,0.243Z" style="fill:#2c3e50;fill-rule:nonzero;"/></g><g transform="matrix(190,0,0,190,311.946,148.67)"><path d="M0.181,0.012c0.068,0 0.126,-0.038 0.151,-0.091c0.001,0.066 0.034,0.089 0.07,0.089c0.021,0 0.039,-0.007 0.053,-0.014l0.007,-0.05c-0.014,0.006 -0.027,0.01 -0.04,0.01c-0.022,0 -0.032,-0.012 -0.031,-0.049l0.006,-0.198c0.003,-0.111 -0.056,-0.176 -0.164,-0.176c-0.057,0 -0.108,0.016 -0.156,0.044l0.016,0.061c0.034,-0.024 0.083,-0.044 0.13,-0.044c0.074,0 0.109,0.04 0.106,0.122l-0.001,0.019c-0.017,-0.002 -0.035,-0.003 -0.054,-0.003c-0.162,0 -0.234,0.065 -0.234,0.15c0,0.076 0.052,0.13 0.141,0.13Zm0.014,-0.056c-0.062,0 -0.088,-0.035 -0.088,-0.078c0,-0.052 0.04,-0.099 0.165,-0.099c0.018,0 0.037,0.001 0.055,0.003l-0.001,0.044c-0.003,0.075 -0.059,0.13 -0.131,0.13Z" style="fill:#2c3e50;fill-rule:nonzero;"/></g><g transform="matrix(190,0,0,190,400.296,148.67)"><path d="M0.214,-0.467c-0.092,0 -0.158,0.058 -0.158,0.132c0,0.144 0.24,0.117 0.24,0.217c0,0.047 -0.046,0.072 -0.102,0.072c-0.054,0 -0.11,-0.021 -0.148,-0.049l-0.004,0.073c0.035,0.023 0.098,0.038 0.15,0.038c0.091,0 0.172,-0.054 0.172,-0.145c0,-0.14 -0.24,-0.121 -0.24,-0.209c0,-0.046 0.041,-0.067 0.089,-0.067c0.043,0 0.081,0.014 0.111,0.035l0.024,-0.061c-0.03,-0.018 -0.078,-0.036 -0.134,-0.036Z" style="fill:#2c3e50;fill-rule:nonzero;"/></g><g transform="matrix(190,0,0,190,474.586,148.67)"><path d="M0.304,-0.072c-0.019,0.012 -0.045,0.023 -0.073,0.023c-0.038,0 -0.059,-0.017 -0.059,-0.067l0,-0.281l0.123,0c0,-0.027 0.001,-0.043 0.003,-0.06l-0.126,0l0,-0.116l-0.061,0.016l-0.007,0.1l-0.062,0l-0.019,0.06l0.08,0l0,0.288c0,0.078 0.035,0.123 0.113,0.123c0.032,0 0.066,-0.01 0.085,-0.025l0.003,-0.061Z" style="fill:#2c3e50;fill-rule:nonzero;"/></g><g transform="matrix(190,0,0,190,535.956,148.67)"><path d="M0.46,-0.247c0,-0.123 -0.059,-0.22 -0.188,-0.22c-0.137,0 -0.227,0.112 -0.227,0.254c0,0.126 0.077,0.229 0.221,0.229c0.071,0 0.124,-0.023 0.171,-0.056l0.003,-0.072c-0.044,0.037 -0.096,0.067 -0.166,0.067c-0.098,0 -0.157,-0.058 -0.16,-0.166l0.3,-0.008l0.046,-0.028Zm-0.344,-0.017c0.013,-0.08 0.068,-0.144 0.151,-0.144c0.079,0 0.119,0.049 0.128,0.137l-0.279,0.007Z" style="fill:#2c3e50;fill-rule:nonzero;"/></g><g transform="matrix(190,0,0,190,628.106,148.67)"><path d="M0.151,0c-0.002,-0.026 -0.003,-0.064 -0.003,-0.099l0,-0.506c0,-0.04 0.001,-0.097 0.003,-0.115c-0.023,0.005 -0.051,0.008 -0.077,0.01c0.004,0.046 0.005,0.1 0.005,0.168l0,0.376c0,0.059 -0.001,0.123 -0.005,0.166l0.077,0Z" style="fill:#2c3e50;fill-rule:nonzero;"/></g><g transform="matrix(190,0,0,190,668.196,148.67)"><path d="M0.498,-0.237c0,-0.126 -0.087,-0.23 -0.221,-0.23c-0.141,0 -0.232,0.111 -0.232,0.253c0,0.127 0.086,0.23 0.219,0.23c0.142,0 0.234,-0.111 0.234,-0.253Zm-0.069,0.01c0,0.101 -0.061,0.182 -0.16,0.182c-0.093,0 -0.156,-0.064 -0.156,-0.18c0,-0.1 0.064,-0.181 0.16,-0.181c0.088,0 0.156,0.064 0.156,0.179Z" style="fill:#2c3e50;fill-rule:nonzero;"/></g></g></g><g><g id="Right-fill" serif:id="Right fill"><path d="M489.512,722.651l-123.368,70.727l0,-120.196l123.368,49.469Z" style="fill:#2c3e50;fill-rule:nonzero;"/><path d="M366.144,295.958l354.331,144.85l0,110.06l-354.331,-144.267l0,-110.643Z" style="fill:#2c3e50;fill-rule:nonzero;"/><path d="M366.144,595.127l0,-109.596l314.252,127.486l-112.255,64.355l-201.997,-82.245Z" style="fill:#2c3e50;fill-rule:nonzero;"/><path d="M366.144,218.447l0,-208.675l70.866,28.97l0,98.032l70.866,28.97l0,-73.295l70.866,28.97l0,73.295l70.866,28.97l0,-73.295l70.867,28.97l0,183.355l-354.331,-144.267Z" style="fill:#2c3e50;fill-rule:nonzero;"/></g><g id="Left-fill" serif:id="Left fill"><path d="M242.776,722.595l123.368,70.727l0,-120.196l-123.368,49.469Z" style="fill:#3b97d3;fill-rule:nonzero;"/><path d="M366.144,295.902l-354.331,144.85l0,110.06l354.331,-144.267l0,-110.643Z" style="fill:#3b97d3;fill-rule:nonzero;"/><path d="M366.144,595.071l0,-109.596l-314.252,127.486l112.254,64.355l201.998,-82.245Z" style="fill:#3b97d3;fill-rule:nonzero;"/><path d="M366.144,9.772l-70.866,28.97l0,97.976l-70.866,28.97l0,-73.239l-70.867,28.97l0,73.239l-70.866,28.97l0,-73.239l-70.866,28.97l0,183.299l354.331,-144.267l0,-208.619Z" style="fill:#3b97d3;fill-rule:nonzero;"/></g><g id="Outline"><path d="M366.144,793.322l-123.368,-70.727l123.368,-49.469l123.368,49.525l-123.368,70.671Z" style="fill:none;stroke:#151e26;stroke-width:8.33px;"/><path d="M366.144,793.322l0,-118.053" style="fill:none;stroke:#151e26;stroke-width:8.33px;"/><path d="M366.144,406.545l-354.331,144.267l0,-110.06l354.331,-144.85l354.331,144.906l0,110.06l-354.331,-144.267l0.137,-110.643" style="fill:none;stroke:#151e26;stroke-width:8.33px;"/><path d="M568.141,677.372l-201.997,-82.301l-201.998,82.245l-112.254,-64.355l314.114,-127.43l314.39,127.486l-112.255,64.355Z" style="fill:none;stroke:#151e26;stroke-width:8.33px;"/><path d="M366.006,485.531l0.4,109.647l-0.4,-109.647Z" style="fill:none;stroke:#151e26;stroke-width:8.33px;"/><path d="M366.144,9.772l-70.866,28.97l0,97.976l-70.866,28.97l0,-73.239l-70.867,28.97l0,73.239l-70.866,28.97l0,-73.239l-70.866,28.97l0,183.299l354.331,-144.267l354.331,144.323l0,-183.355l-70.867,-28.97l0,73.295l-70.866,-28.97l0,-73.295l-70.866,-28.97l0,73.295l-70.866,-28.97l0,-98.032l-70.866,-28.97Z" style="fill:none;stroke:#151e26;stroke-width:8.33px;"/><path d="M366.144,9.772l0,208.619" style="fill:none;stroke:#151e26;stroke-width:8.33px;"/></g></g></g></svg>