<?xml version="1.0" encoding="UTF-8" standalone="no"?>
<!DOCTYPE svg PUBLIC "-//W3C//DTD SVG 1.1//EN" "http://www.w3.org/Graphics/SVG/1.1/DTD/svg11.dtd">
<svg width="100%" height="100%" viewBox="0 0 1275 221" version="1.1" xmlns="http://www.w3.org/2000/svg" xmlns:xlink="http://www.w3.org/1999/xlink" xml:space="preserve" xmlns:serif="http://www.serif.com/" style="fill-rule:evenodd;clip-rule:evenodd;stroke-linejoin:round;stroke-miterlimit:2;">
    <g transform="matrix(1,0,0,1,0,-1771.92)">
        <g id="light" transform="matrix(0.885771,0,0,0.792267,50.2679,1802.21)">
            <rect x="-56.75" y="-38.234" width="1439.42" height="278.736" style="fill:none;"/>
            <g transform="matrix(4.704,0,0,5.25917,-51.7882,-1307.45)">
                <path d="M12.847,257.311C14.143,257.311 15.115,257.023 15.763,256.446C16.411,255.87 16.734,254.935 16.734,253.639C16.734,252.392 16.411,251.485 15.763,250.921C15.115,250.357 14.143,250.075 12.847,250.075L6.655,250.075L6.655,257.311L12.847,257.311ZM14.863,245.683C16.015,245.683 17.052,245.869 17.977,246.241C18.9,246.613 19.692,247.122 20.353,247.771C21.012,248.419 21.517,249.169 21.865,250.021C22.212,250.873 22.387,251.791 22.387,252.774C22.387,254.286 22.068,255.595 21.433,256.698C20.796,257.803 19.759,258.643 18.318,259.219L18.318,259.29C19.014,259.484 19.59,259.777 20.046,260.173C20.502,260.57 20.875,261.036 21.163,261.578C21.451,262.117 21.66,262.712 21.793,263.358C21.924,264.007 22.014,264.655 22.063,265.303C22.086,265.711 22.11,266.191 22.135,266.743C22.158,267.295 22.2,267.858 22.261,268.435C22.32,269.011 22.417,269.558 22.548,270.073C22.68,270.589 22.878,271.026 23.143,271.387L17.491,271.387C17.178,270.571 16.986,269.599 16.915,268.471C16.843,267.343 16.734,266.263 16.59,265.232C16.398,263.887 15.99,262.903 15.367,262.278C14.742,261.656 13.722,261.343 12.307,261.343L6.655,261.343L6.655,271.387L1.002,271.387L1.002,245.683L14.863,245.683Z" style="fill:rgb(209,60,39);fill-rule:nonzero;"/>
                <path d="M45.318,245.683L45.318,250.435L31.746,250.435L31.746,255.942L44.202,255.942L44.202,260.335L31.746,260.335L31.746,266.635L45.606,266.635L45.606,271.387L26.094,271.387L26.094,245.683L45.318,245.683Z" style="fill:rgb(209,60,39);fill-rule:nonzero;"/>
                <path d="M67.746,245.683L67.746,250.435L54.174,250.435L54.174,255.942L66.629,255.942L66.629,260.335L54.174,260.335L54.174,266.635L68.034,266.635L68.034,271.387L48.522,271.387L48.522,245.683L67.746,245.683Z" style="fill:rgb(209,60,39);fill-rule:nonzero;"/>
                <path d="M89.022,245.683L89.022,250.435L76.602,250.435L76.602,256.374L87.366,256.374L87.366,260.768L76.602,260.768L76.602,271.387L70.95,271.387L70.95,245.683L89.022,245.683Z" style="fill:rgb(209,60,39);fill-rule:nonzero;"/>
                <path d="M114.594,249.192C113.453,248.364 111.995,247.95 110.22,247.95C109.5,247.95 108.792,248.023 108.096,248.167C107.399,248.311 106.782,248.551 106.242,248.887C105.702,249.224 105.27,249.673 104.945,250.237C104.622,250.801 104.459,251.503 104.459,252.343C104.459,253.135 104.693,253.776 105.162,254.269C105.629,254.761 106.253,255.163 107.034,255.475C107.813,255.787 108.695,256.045 109.68,256.249C110.664,256.453 111.665,256.675 112.686,256.915C113.706,257.156 114.707,257.437 115.691,257.761C116.675,258.085 117.557,258.523 118.337,259.075C119.117,259.627 119.742,260.324 120.209,261.163C120.678,262.003 120.912,263.06 120.912,264.331C120.912,265.698 120.605,266.868 119.994,267.841C119.381,268.813 118.595,269.605 117.636,270.217C116.675,270.829 115.602,271.273 114.414,271.549C113.226,271.824 112.043,271.963 110.868,271.963C109.428,271.963 108.065,271.782 106.782,271.423C105.498,271.063 104.37,270.517 103.397,269.784C102.425,269.053 101.657,268.116 101.094,266.977C100.529,265.837 100.248,264.487 100.248,262.928L103.487,262.928C103.487,264.007 103.697,264.937 104.118,265.717C104.537,266.497 105.089,267.139 105.773,267.643C106.458,268.147 107.255,268.519 108.167,268.759C109.079,268.999 110.015,269.118 110.976,269.118C111.743,269.118 112.518,269.047 113.297,268.903C114.077,268.759 114.779,268.513 115.403,268.165C116.027,267.817 116.531,267.343 116.916,266.743C117.299,266.144 117.492,265.374 117.492,264.439C117.492,263.552 117.257,262.831 116.79,262.278C116.321,261.729 115.697,261.277 114.917,260.929C114.137,260.581 113.255,260.299 112.271,260.083C111.287,259.867 110.285,259.647 109.266,259.417C108.245,259.19 107.243,258.925 106.26,258.624C105.275,258.325 104.393,257.929 103.614,257.437C102.833,256.945 102.209,256.31 101.742,255.528C101.273,254.749 101.04,253.771 101.04,252.595C101.04,251.299 101.303,250.177 101.832,249.229C102.359,248.28 103.061,247.501 103.938,246.889C104.813,246.276 105.81,245.821 106.925,245.521C108.042,245.221 109.188,245.071 110.364,245.071C111.683,245.071 112.907,245.228 114.036,245.538C115.164,245.851 116.153,246.343 117.005,247.015C117.857,247.687 118.529,248.532 119.021,249.553C119.513,250.573 119.783,251.791 119.832,253.206L116.591,253.206C116.399,251.358 115.733,250.021 114.594,249.192Z" style="fill:white;fill-rule:nonzero;"/>
                <path d="M158.496,245.683L158.496,268.507L172.104,268.507L172.104,271.387L155.076,271.387L155.076,245.683L158.496,245.683Z" style="fill:white;fill-rule:nonzero;"/>
                <path d="M192.984,269.497C191.232,271.142 188.736,271.963 185.496,271.963C182.184,271.963 179.597,271.177 177.738,269.605C175.877,268.033 174.948,265.531 174.948,262.1L174.948,245.683L178.368,245.683L178.368,262.1C178.368,264.403 178.98,266.149 180.204,267.337C181.427,268.524 183.192,269.118 185.496,269.118C187.679,269.118 189.341,268.524 190.482,267.337C191.622,266.149 192.192,264.403 192.192,262.1L192.192,245.683L195.612,245.683L195.612,262.1C195.612,265.388 194.735,267.853 192.984,269.497Z" style="fill:white;fill-rule:nonzero;"/>
                <path d="M198.347,248.563L198.347,245.683L218.903,245.683L218.903,248.563L210.334,248.563L210.334,271.387L206.915,271.387L206.915,248.563L198.347,248.563Z" style="fill:white;fill-rule:nonzero;"/>
                <rect x="221.891" y="245.683" width="3.42" height="25.704" style="fill:white;fill-rule:nonzero;"/>
                <path d="M233.554,262.368C233.89,263.629 234.418,264.763 235.138,265.771C235.858,266.778 236.782,267.589 237.911,268.2C239.038,268.813 240.381,269.118 241.942,269.118C243.502,269.118 244.846,268.813 245.974,268.2C247.102,267.589 248.026,266.778 248.747,265.771C249.466,264.763 249.994,263.629 250.331,262.368C250.667,261.109 250.834,259.831 250.834,258.535C250.834,257.239 250.667,255.961 250.331,254.7C249.994,253.441 249.466,252.307 248.747,251.299C248.026,250.29 247.102,249.482 245.974,248.868C244.846,248.257 243.502,247.95 241.942,247.95C240.381,247.95 239.038,248.257 237.911,248.868C236.782,249.482 235.858,250.29 235.138,251.299C234.418,252.307 233.89,253.441 233.554,254.7C233.218,255.961 233.05,257.239 233.05,258.535C233.05,259.831 233.218,261.109 233.554,262.368ZM230.404,253.477C230.92,251.857 231.694,250.423 232.726,249.175C233.758,247.927 235.042,246.931 236.579,246.187C238.114,245.442 239.902,245.071 241.942,245.071C243.982,245.071 245.77,245.442 247.306,246.187C248.842,246.931 250.126,247.927 251.159,249.175C252.19,250.423 252.963,251.857 253.48,253.477C253.996,255.097 254.254,256.783 254.254,258.535C254.254,260.287 253.996,261.973 253.48,263.593C252.963,265.213 252.19,266.648 251.159,267.895C250.126,269.144 248.842,270.133 247.306,270.864C245.77,271.597 243.982,271.963 241.942,271.963C239.902,271.963 238.114,271.597 236.579,270.864C235.042,270.133 233.758,269.144 232.726,267.895C231.694,266.648 230.92,265.213 230.404,263.593C229.888,261.973 229.63,260.287 229.63,258.535C229.63,256.783 229.888,255.097 230.404,253.477Z" style="fill:white;fill-rule:nonzero;"/>
                <path d="M262.03,245.683L275.566,266.526L275.637,266.526L275.637,245.683L278.877,245.683L278.877,271.387L275.133,271.387L261.706,250.759L261.633,250.759L261.633,271.387L258.394,271.387L258.394,245.683L262.03,245.683Z" style="fill:white;fill-rule:nonzero;"/>
                <path d="M297.292,249.192C296.152,248.364 294.694,247.95 292.917,247.95C292.198,247.95 291.49,248.023 290.793,248.167C290.097,248.311 289.48,248.551 288.94,248.887C288.4,249.224 287.967,249.673 287.644,250.237C287.32,250.801 287.158,251.503 287.158,252.343C287.158,253.135 287.392,253.776 287.86,254.269C288.328,254.761 288.952,255.163 289.732,255.475C290.511,255.787 291.393,256.045 292.377,256.249C293.362,256.453 294.364,256.675 295.383,256.915C296.404,257.156 297.406,257.437 298.39,257.761C299.374,258.085 300.255,258.523 301.036,259.075C301.815,259.627 302.44,260.324 302.908,261.163C303.375,262.003 303.61,263.06 303.61,264.331C303.61,265.698 303.304,266.868 302.692,267.841C302.08,268.813 301.293,269.605 300.333,270.217C299.374,270.829 298.299,271.273 297.112,271.549C295.923,271.824 294.742,271.963 293.566,271.963C292.125,271.963 290.763,271.782 289.48,271.423C288.196,271.063 287.068,270.517 286.096,269.784C285.124,269.053 284.355,268.116 283.792,266.977C283.228,265.837 282.946,264.487 282.946,262.928L286.186,262.928C286.186,264.007 286.396,264.937 286.816,265.717C287.236,266.497 287.788,267.139 288.472,267.643C289.156,268.147 289.954,268.519 290.866,268.759C291.778,268.999 292.713,269.118 293.673,269.118C294.442,269.118 295.215,269.047 295.996,268.903C296.776,268.759 297.477,268.513 298.102,268.165C298.725,267.817 299.23,267.343 299.614,266.743C299.998,266.144 300.19,265.374 300.19,264.439C300.19,263.552 299.956,262.831 299.488,262.278C299.02,261.729 298.395,261.277 297.616,260.929C296.835,260.581 295.954,260.299 294.97,260.083C293.986,259.867 292.984,259.647 291.963,259.417C290.944,259.19 289.942,258.925 288.958,258.624C287.973,258.325 287.091,257.929 286.312,257.437C285.532,256.945 284.908,256.31 284.44,255.528C283.972,254.749 283.738,253.771 283.738,252.595C283.738,251.299 284.001,250.177 284.53,249.229C285.057,248.28 285.759,247.501 286.636,246.889C287.511,246.276 288.507,245.821 289.624,245.521C290.74,245.221 291.885,245.071 293.062,245.071C294.381,245.071 295.605,245.228 296.734,245.538C297.862,245.851 298.852,246.343 299.704,247.015C300.555,247.687 301.228,248.532 301.72,249.553C302.211,250.573 302.481,251.791 302.53,253.206L299.29,253.206C299.097,251.358 298.431,250.021 297.292,249.192Z" style="fill:white;fill-rule:nonzero;"/>
                <path d="M138.97,248.987C138.97,249.67 138.417,250.224 137.734,250.224C137.051,250.224 136.498,249.67 136.498,248.987L136.498,243.63C136.498,242.946 137.051,242.394 137.734,242.394C138.417,242.394 138.97,242.946 138.97,243.63L138.97,248.987Z" style="fill:rgb(209,60,39);fill-rule:nonzero;"/>
                <path d="M138.97,272.685C138.97,273.366 138.417,273.921 137.734,273.921C137.051,273.921 136.498,273.366 136.498,272.685L136.498,267.327C136.498,266.644 137.051,266.09 137.734,266.09C138.417,266.09 138.97,266.644 138.97,267.327L138.97,272.685Z" style="fill:rgb(209,60,39);fill-rule:nonzero;"/>
                <path d="M128.563,256.921C129.248,256.921 129.8,257.475 129.8,258.157C129.8,258.839 129.248,259.394 128.563,259.394L123.207,259.394C122.524,259.394 121.97,258.839 121.97,258.157C121.97,257.475 122.524,256.921 123.207,256.921L128.563,256.921Z" style="fill:rgb(209,60,39);fill-rule:nonzero;"/>
                <path d="M152.261,256.921C152.944,256.921 153.498,257.475 153.498,258.157C153.498,258.839 152.944,259.394 152.261,259.394L146.904,259.394C146.221,259.394 145.667,258.839 145.667,258.157C145.667,257.475 146.221,256.921 146.904,256.921L152.261,256.921Z" style="fill:rgb(209,60,39);fill-rule:nonzero;"/>
                <path d="M134.22,249.597C134.561,250.189 134.359,250.944 133.767,251.286C133.176,251.628 132.419,251.425 132.078,250.833L129.399,246.194C129.058,245.603 129.261,244.847 129.853,244.505C130.442,244.163 131.2,244.366 131.541,244.958L134.22,249.597Z" style="fill:rgb(209,60,39);fill-rule:nonzero;"/>
                <path d="M146.069,270.12C146.41,270.711 146.207,271.468 145.616,271.809C145.025,272.149 144.268,271.946 143.926,271.357L141.248,266.716C140.907,266.124 141.109,265.368 141.701,265.027C142.292,264.687 143.048,264.889 143.39,265.48L146.069,270.12Z" style="fill:rgb(209,60,39);fill-rule:nonzero;"/>
                <path d="M129.173,261.671C129.765,261.329 130.522,261.532 130.863,262.124C131.205,262.714 131.001,263.471 130.41,263.813L125.771,266.491C125.179,266.833 124.423,266.63 124.082,266.038C123.741,265.447 123.943,264.691 124.535,264.35L129.173,261.671Z" style="fill:rgb(209,60,39);fill-rule:nonzero;"/>
                <path d="M149.697,249.822C150.288,249.482 151.044,249.684 151.385,250.274C151.727,250.866 151.524,251.622 150.933,251.964L146.293,254.643C145.702,254.983 144.946,254.781 144.604,254.191C144.262,253.599 144.465,252.843 145.057,252.501L149.697,249.822Z" style="fill:rgb(209,60,39);fill-rule:nonzero;"/>
                <path d="M130.412,252.501C131.001,252.843 131.205,253.599 130.864,254.19C130.522,254.78 129.766,254.983 129.175,254.642L124.535,251.964C123.944,251.622 123.742,250.866 124.083,250.274C124.423,249.684 125.179,249.482 125.771,249.822L130.412,252.501Z" style="fill:rgb(209,60,39);fill-rule:nonzero;"/>
                <path d="M150.933,264.35C151.524,264.691 151.727,265.447 151.385,266.038C151.045,266.63 150.288,266.832 149.698,266.491L145.057,263.812C144.465,263.471 144.264,262.714 144.604,262.124C144.946,261.532 145.702,261.329 146.293,261.671L150.933,264.35Z" style="fill:rgb(209,60,39);fill-rule:nonzero;"/>
                <path d="M132.079,265.48C132.419,264.889 133.176,264.687 133.767,265.027C134.359,265.368 134.561,266.124 134.22,266.716L131.541,271.357C131.201,271.946 130.442,272.149 129.853,271.808C129.261,271.468 129.058,270.711 129.399,270.12L132.079,265.48Z" style="fill:rgb(209,60,39);fill-rule:nonzero;"/>
                <path d="M143.926,244.957C144.268,244.366 145.024,244.163 145.616,244.505C146.208,244.847 146.409,245.603 146.069,246.194L143.39,250.833C143.048,251.425 142.292,251.628 141.701,251.286C141.109,250.944 140.907,250.189 141.249,249.597L143.926,244.957Z" style="fill:rgb(209,60,39);fill-rule:nonzero;"/>
                <path d="M0,282.713L0,281.425L9.192,281.425L9.192,282.713L5.361,282.713L5.361,292.921L3.831,292.921L3.831,282.713L0,282.713Z" style="fill:rgb(145,145,145);fill-rule:nonzero;"/>
                <path d="M18.401,281.425L18.401,282.713L11.994,282.713L11.994,286.368L17.967,286.368L17.967,287.655L11.994,287.655L11.994,291.632L18.45,291.632L18.45,292.921L10.464,292.921L10.464,281.425L18.401,281.425Z" style="fill:rgb(145,145,145);fill-rule:nonzero;"/>
                <path d="M27.249,283.052C26.663,282.644 25.968,282.44 25.164,282.44C24.477,282.44 23.889,282.567 23.4,282.825C22.912,283.083 22.509,283.43 22.193,283.864C21.877,284.299 21.643,284.796 21.493,285.354C21.342,285.911 21.267,286.491 21.267,287.093C21.267,287.747 21.342,288.366 21.493,288.952C21.643,289.537 21.877,290.046 22.193,290.482C22.509,290.916 22.915,291.263 23.409,291.52C23.902,291.777 24.493,291.906 25.18,291.906C25.684,291.906 26.132,291.823 26.524,291.657C26.916,291.49 27.253,291.26 27.538,290.964C27.822,290.669 28.045,290.317 28.207,289.909C28.367,289.502 28.464,289.062 28.496,288.589L30.025,288.589C29.875,290.038 29.376,291.165 28.528,291.971C27.68,292.775 26.521,293.179 25.051,293.179C24.16,293.179 23.382,293.024 22.716,292.72C22.051,292.413 21.498,291.992 21.058,291.455C20.618,290.919 20.288,290.286 20.068,289.556C19.848,288.825 19.738,288.042 19.738,287.205C19.738,286.368 19.856,285.581 20.092,284.847C20.328,284.111 20.674,283.47 21.13,282.923C21.586,282.375 22.155,281.942 22.837,281.626C23.519,281.31 24.299,281.151 25.18,281.151C25.78,281.151 26.349,281.232 26.886,281.393C27.423,281.554 27.9,281.79 28.319,282.101C28.738,282.413 29.086,282.802 29.366,283.269C29.645,283.735 29.827,284.274 29.913,284.887L28.383,284.887C28.211,284.071 27.833,283.459 27.249,283.052Z" style="fill:rgb(145,145,145);fill-rule:nonzero;"/>
                <path d="M33.455,281.425L33.455,286.368L39.508,286.368L39.508,281.425L41.038,281.425L41.038,292.921L39.508,292.921L39.508,287.655L33.455,287.655L33.455,292.921L31.925,292.921L31.925,281.425L33.455,281.425Z" style="fill:rgb(145,145,145);fill-rule:nonzero;"/>
                <path d="M45.159,281.425L51.213,290.747L51.245,290.747L51.245,281.425L52.694,281.425L52.694,292.921L51.02,292.921L45.014,283.695L44.982,283.695L44.982,292.921L43.533,292.921L43.533,281.425L45.159,281.425Z" style="fill:rgb(145,145,145);fill-rule:nonzero;"/>
                <path d="M56.284,288.888C56.435,289.45 56.67,289.958 56.993,290.409C57.314,290.859 57.728,291.222 58.232,291.495C58.737,291.769 59.337,291.906 60.036,291.906C60.733,291.906 61.334,291.769 61.839,291.495C62.343,291.222 62.756,290.859 63.079,290.409C63.4,289.958 63.636,289.45 63.787,288.888C63.937,288.323 64.012,287.753 64.012,287.173C64.012,286.593 63.937,286.022 63.787,285.458C63.636,284.895 63.4,284.388 63.079,283.937C62.756,283.485 62.343,283.124 61.839,282.851C61.334,282.576 60.733,282.44 60.036,282.44C59.337,282.44 58.737,282.576 58.232,282.851C57.728,283.124 57.314,283.485 56.993,283.937C56.67,284.388 56.435,284.895 56.284,285.458C56.134,286.022 56.059,286.593 56.059,287.173C56.059,287.753 56.134,288.323 56.284,288.888ZM54.876,284.911C55.106,284.187 55.452,283.545 55.914,282.987C56.376,282.429 56.95,281.983 57.637,281.65C58.323,281.317 59.123,281.151 60.036,281.151C60.948,281.151 61.748,281.317 62.435,281.65C63.121,281.983 63.695,282.429 64.157,282.987C64.619,283.545 64.964,284.187 65.195,284.911C65.426,285.636 65.542,286.39 65.542,287.173C65.542,287.956 65.426,288.71 65.195,289.435C64.964,290.159 64.619,290.801 64.157,291.358C63.695,291.917 63.121,292.36 62.435,292.687C61.748,293.015 60.948,293.179 60.036,293.179C59.123,293.179 58.323,293.015 57.637,292.687C56.95,292.36 56.376,291.917 55.914,291.358C55.452,290.801 55.106,290.159 54.876,289.435C54.645,288.71 54.529,287.956 54.529,287.173C54.529,286.39 54.645,285.636 54.876,284.911Z" style="fill:rgb(145,145,145);fill-rule:nonzero;"/>
                <path d="M68.939,281.425L68.939,291.632L75.024,291.632L75.024,292.921L67.409,292.921L67.409,281.425L68.939,281.425Z" style="fill:rgb(145,145,145);fill-rule:nonzero;"/>
                <path d="M77.472,288.888C77.622,289.45 77.858,289.958 78.18,290.409C78.502,290.859 78.915,291.222 79.42,291.495C79.924,291.769 80.525,291.906 81.223,291.906C81.92,291.906 82.522,291.769 83.026,291.495C83.531,291.222 83.944,290.859 84.266,290.409C84.588,289.958 84.824,289.45 84.974,288.888C85.125,288.323 85.2,287.753 85.2,287.173C85.2,286.593 85.125,286.022 84.974,285.458C84.824,284.895 84.588,284.388 84.266,283.937C83.944,283.485 83.531,283.124 83.026,282.851C82.522,282.576 81.92,282.44 81.223,282.44C80.525,282.44 79.924,282.576 79.42,282.851C78.915,283.124 78.502,283.485 78.18,283.937C77.858,284.388 77.622,284.895 77.472,285.458C77.321,286.022 77.246,286.593 77.246,287.173C77.246,287.753 77.321,288.323 77.472,288.888ZM76.063,284.911C76.293,284.187 76.64,283.545 77.102,282.987C77.563,282.429 78.137,281.983 78.824,281.65C79.511,281.317 80.311,281.151 81.223,281.151C82.135,281.151 82.935,281.317 83.622,281.65C84.309,281.983 84.883,282.429 85.345,282.987C85.806,283.545 86.152,284.187 86.383,284.911C86.614,285.636 86.729,286.39 86.729,287.173C86.729,287.956 86.614,288.71 86.383,289.435C86.152,290.159 85.806,290.801 85.345,291.358C84.883,291.917 84.309,292.36 83.622,292.687C82.935,293.015 82.135,293.179 81.223,293.179C80.311,293.179 79.511,293.015 78.824,292.687C78.137,292.36 77.563,291.917 77.102,291.358C76.64,290.801 76.293,290.159 76.063,289.435C75.832,288.71 75.717,287.956 75.717,287.173C75.717,286.39 75.832,285.636 76.063,284.911Z" style="fill:rgb(145,145,145);fill-rule:nonzero;"/>
                <path d="M95.52,292.784C94.854,293.046 94.183,293.179 93.507,293.179C92.648,293.179 91.881,293.02 91.205,292.703C90.529,292.387 89.954,291.96 89.482,291.423C89.01,290.887 88.65,290.27 88.403,289.571C88.156,288.874 88.033,288.149 88.033,287.398C88.033,286.562 88.148,285.765 88.379,285.007C88.61,284.251 88.953,283.588 89.41,283.019C89.866,282.45 90.435,281.997 91.116,281.659C91.798,281.32 92.595,281.151 93.507,281.151C94.129,281.151 94.717,281.224 95.27,281.368C95.823,281.514 96.316,281.741 96.752,282.053C97.186,282.364 97.551,282.759 97.846,283.236C98.141,283.714 98.342,284.291 98.45,284.967L96.92,284.967C96.845,284.526 96.706,284.149 96.502,283.832C96.298,283.516 96.045,283.255 95.745,283.052C95.444,282.847 95.104,282.694 94.723,282.593C94.342,282.49 93.937,282.44 93.507,282.44C92.809,282.44 92.211,282.579 91.712,282.858C91.213,283.138 90.805,283.505 90.488,283.961C90.172,284.417 89.938,284.938 89.788,285.523C89.638,286.107 89.563,286.706 89.563,287.317C89.563,287.919 89.648,288.495 89.82,289.048C89.992,289.601 90.244,290.089 90.577,290.514C90.91,290.938 91.32,291.276 91.809,291.528C92.297,291.78 92.863,291.906 93.507,291.906C94.108,291.906 94.639,291.81 95.101,291.616C95.563,291.423 95.952,291.157 96.268,290.819C96.585,290.482 96.824,290.085 96.985,289.628C97.146,289.172 97.215,288.681 97.194,288.155L93.523,288.155L93.523,286.866L98.563,286.866L98.563,292.921L97.597,292.921L97.194,291.487C96.743,292.089 96.185,292.521 95.52,292.784Z" style="fill:rgb(145,145,145);fill-rule:nonzero;"/>
                <path d="M105.566,292.921L104.037,292.921L104.037,288.22L99.593,281.425L101.413,281.425L104.858,286.899L108.223,281.425L109.961,281.425L105.566,288.22L105.566,292.921Z" style="fill:rgb(145,145,145);fill-rule:nonzero;"/>
                <path d="M119.412,285.499C119.594,285.37 119.761,285.225 119.911,285.064C120.061,284.903 120.185,284.724 120.281,284.524C120.378,284.325 120.426,284.103 120.426,283.857C120.426,283.524 120.308,283.236 120.072,282.995C119.836,282.753 119.514,282.632 119.106,282.632C118.784,282.632 118.483,282.732 118.205,282.931C117.925,283.129 117.786,283.438 117.786,283.857C117.786,284.028 117.82,284.2 117.891,284.371C117.96,284.543 118.049,284.712 118.156,284.878C118.263,285.045 118.381,285.208 118.51,285.37C118.639,285.53 118.768,285.691 118.897,285.853C119.058,285.745 119.229,285.627 119.412,285.499ZM117.681,287.833C117.439,287.993 117.228,288.177 117.045,288.38C116.863,288.584 116.718,288.813 116.61,289.065C116.503,289.317 116.45,289.614 116.45,289.958C116.45,290.248 116.511,290.514 116.635,290.755C116.758,290.997 116.922,291.2 117.126,291.366C117.33,291.533 117.563,291.665 117.826,291.761C118.089,291.858 118.36,291.906 118.639,291.906C119.165,291.906 119.635,291.782 120.048,291.536C120.461,291.289 120.807,290.956 121.086,290.538L118.446,287.366C118.178,287.517 117.923,287.672 117.681,287.833ZM120.434,292.694C119.838,292.964 119.224,293.098 118.591,293.098C117.818,293.098 117.195,292.98 116.723,292.743C116.251,292.507 115.886,292.223 115.628,291.89C115.371,291.558 115.202,291.214 115.121,290.859C115.041,290.505 115,290.21 115,289.974C115,289.524 115.073,289.126 115.218,288.782C115.363,288.44 115.556,288.131 115.797,287.857C116.039,287.583 116.323,287.337 116.651,287.116C116.978,286.897 117.324,286.691 117.689,286.497C117.528,286.271 117.373,286.057 117.222,285.853C117.072,285.649 116.935,285.442 116.812,285.232C116.688,285.024 116.592,284.804 116.522,284.573C116.452,284.342 116.417,284.081 116.417,283.792C116.417,283.481 116.474,283.183 116.586,282.898C116.699,282.614 116.865,282.362 117.085,282.142C117.305,281.921 117.577,281.747 117.898,281.618C118.221,281.489 118.591,281.425 119.009,281.425C119.364,281.425 119.71,281.474 120.048,281.569C120.386,281.667 120.684,281.814 120.941,282.013C121.199,282.212 121.406,282.458 121.562,282.753C121.717,283.049 121.795,283.39 121.795,283.775C121.795,284.119 121.736,284.439 121.618,284.733C121.5,285.028 121.338,285.3 121.135,285.546C120.931,285.794 120.7,286.017 120.442,286.215C120.185,286.413 119.917,286.593 119.637,286.754L121.714,289.282C121.929,288.681 122.052,288.085 122.084,287.495L123.389,287.495C123.356,287.839 123.321,288.131 123.284,288.372C123.246,288.614 123.198,288.837 123.139,289.04C123.08,289.244 123.007,289.446 122.922,289.644C122.836,289.843 122.734,290.071 122.616,290.328L124.854,292.921L123.066,292.921L121.843,291.487C121.5,292.024 121.03,292.427 120.434,292.694Z" style="fill:rgb(145,145,145);fill-rule:nonzero;"/>
                <path d="M137.292,283.052C136.706,282.644 136.01,282.44 135.206,282.44C134.518,282.44 133.932,282.567 133.444,282.825C132.954,283.083 132.551,283.43 132.235,283.864C131.918,284.299 131.686,284.796 131.536,285.354C131.385,285.911 131.309,286.491 131.309,287.093C131.309,287.747 131.385,288.366 131.536,288.952C131.686,289.537 131.918,290.046 132.235,290.482C132.551,290.916 132.958,291.263 133.452,291.52C133.944,291.777 134.536,291.906 135.221,291.906C135.727,291.906 136.174,291.823 136.567,291.657C136.958,291.49 137.295,291.26 137.581,290.964C137.866,290.669 138.088,290.317 138.249,289.909C138.411,289.502 138.506,289.062 138.54,288.589L140.069,288.589C139.918,290.038 139.418,291.165 138.571,291.971C137.723,292.775 136.563,293.179 135.092,293.179C134.202,293.179 133.424,293.024 132.758,292.72C132.092,292.413 131.54,291.992 131.1,291.455C130.66,290.919 130.33,290.286 130.11,289.556C129.89,288.825 129.78,288.042 129.78,287.205C129.78,286.368 129.897,285.581 130.134,284.847C130.369,284.111 130.716,283.47 131.172,282.923C131.629,282.375 132.198,281.942 132.879,281.626C133.561,281.31 134.342,281.151 135.221,281.151C135.823,281.151 136.391,281.232 136.928,281.393C137.465,281.554 137.944,281.79 138.362,282.101C138.78,282.413 139.129,282.802 139.409,283.269C139.686,283.735 139.87,284.274 139.956,284.887L138.426,284.887C138.254,284.071 137.875,283.459 137.292,283.052Z" style="fill:rgb(145,145,145);fill-rule:nonzero;"/>
                <path d="M143.498,281.425L143.498,291.632L149.583,291.632L149.583,292.921L141.968,292.921L141.968,281.425L143.498,281.425Z" style="fill:rgb(145,145,145);fill-rule:nonzero;"/>
                <path d="M152.031,288.888C152.18,289.45 152.417,289.958 152.739,290.409C153.061,290.859 153.474,291.222 153.978,291.495C154.483,291.769 155.083,291.906 155.782,291.906C156.479,291.906 157.081,291.769 157.584,291.495C158.089,291.222 158.502,290.859 158.825,290.409C159.146,289.958 159.382,289.45 159.533,288.888C159.683,288.323 159.758,287.753 159.758,287.173C159.758,286.593 159.683,286.022 159.533,285.458C159.382,284.895 159.146,284.388 158.825,283.937C158.502,283.485 158.089,283.124 157.584,282.851C157.081,282.576 156.479,282.44 155.782,282.44C155.083,282.44 154.483,282.576 153.978,282.851C153.474,283.124 153.061,283.485 152.739,283.937C152.417,284.388 152.18,284.895 152.031,285.458C151.879,286.022 151.805,286.593 151.805,287.173C151.805,287.753 151.879,288.323 152.031,288.888ZM150.622,284.911C150.852,284.187 151.199,283.545 151.66,282.987C152.122,282.429 152.696,281.983 153.382,281.65C154.07,281.317 154.87,281.151 155.782,281.151C156.694,281.151 157.494,281.317 158.18,281.65C158.868,281.983 159.442,282.429 159.903,282.987C160.365,283.545 160.71,284.187 160.942,284.911C161.172,285.636 161.288,286.39 161.288,287.173C161.288,287.956 161.172,288.71 160.942,289.435C160.71,290.159 160.365,290.801 159.903,291.358C159.442,291.917 158.868,292.36 158.18,292.687C157.494,293.015 156.694,293.179 155.782,293.179C154.87,293.179 154.07,293.015 153.382,292.687C152.696,292.36 152.122,291.917 151.66,291.358C151.199,290.801 150.852,290.159 150.622,289.435C150.39,288.71 150.275,287.956 150.275,287.173C150.275,286.39 150.39,285.636 150.622,284.911Z" style="fill:rgb(145,145,145);fill-rule:nonzero;"/>
                <path d="M171.158,292.075C170.374,292.811 169.257,293.179 167.809,293.179C166.328,293.179 165.17,292.827 164.339,292.124C163.507,291.421 163.091,290.302 163.091,288.767L163.091,281.425L164.621,281.425L164.621,288.767C164.621,289.797 164.894,290.577 165.442,291.109C165.99,291.641 166.778,291.906 167.809,291.906C168.786,291.906 169.529,291.641 170.039,291.109C170.548,290.577 170.803,289.797 170.803,288.767L170.803,281.425L172.333,281.425L172.333,288.767C172.333,290.237 171.941,291.341 171.158,292.075Z" style="fill:rgb(145,145,145);fill-rule:nonzero;"/>
                <path d="M178.853,291.632C179.025,291.632 179.24,291.619 179.497,291.593C179.754,291.566 180.029,291.501 180.318,291.399C180.608,291.297 180.895,291.149 181.179,290.956C181.463,290.763 181.719,290.5 181.944,290.167C182.169,289.835 182.355,289.419 182.5,288.919C182.645,288.421 182.717,287.817 182.717,287.108C182.717,286.421 182.65,285.808 182.516,285.265C182.381,284.724 182.162,284.261 181.856,283.88C181.549,283.499 181.156,283.21 180.672,283.011C180.189,282.813 179.593,282.713 178.885,282.713L176.309,282.713L176.309,291.632L178.853,291.632ZM178.724,281.425C180.496,281.425 181.858,281.876 182.814,282.777C183.769,283.679 184.247,285.054 184.247,286.899C184.247,287.865 184.139,288.722 183.924,289.467C183.709,290.213 183.377,290.841 182.926,291.351C182.475,291.86 181.901,292.249 181.204,292.519C180.505,292.786 179.679,292.921 178.724,292.921L174.78,292.921L174.78,281.425L178.724,281.425Z" style="fill:rgb(145,145,145);fill-rule:nonzero;"/>
                <path d="M197.537,283.052C196.952,282.644 196.256,282.44 195.452,282.44C194.764,282.44 194.177,282.567 193.689,282.825C193.2,283.083 192.797,283.43 192.481,283.864C192.165,284.299 191.931,284.796 191.781,285.354C191.63,285.911 191.555,286.491 191.555,287.093C191.555,287.747 191.63,288.366 191.781,288.952C191.931,289.537 192.165,290.046 192.481,290.482C192.797,290.916 193.203,291.263 193.697,291.52C194.19,291.777 194.781,291.906 195.467,291.906C195.972,291.906 196.42,291.823 196.812,291.657C197.204,291.49 197.542,291.26 197.827,290.964C198.111,290.669 198.333,290.317 198.495,289.909C198.656,289.502 198.752,289.062 198.785,288.589L200.314,288.589C200.164,290.038 199.665,291.165 198.816,291.971C197.968,292.775 196.809,293.179 195.338,293.179C194.448,293.179 193.669,293.024 193.004,292.72C192.338,292.413 191.786,291.992 191.346,291.455C190.906,290.919 190.576,290.286 190.356,289.556C190.135,288.825 190.026,288.042 190.026,287.205C190.026,286.368 190.144,285.581 190.38,284.847C190.616,284.111 190.962,283.47 191.418,282.923C191.875,282.375 192.443,281.942 193.125,281.626C193.806,281.31 194.587,281.151 195.467,281.151C196.069,281.151 196.637,281.232 197.174,281.393C197.71,281.554 198.189,281.79 198.607,282.101C199.026,282.413 199.375,282.802 199.654,283.269C199.932,283.735 200.115,284.274 200.201,284.887L198.671,284.887C198.5,284.071 198.122,283.459 197.537,283.052Z" style="fill:rgb(145,145,145);fill-rule:nonzero;"/>
                <path d="M203.325,288.888C203.474,289.45 203.71,289.958 204.033,290.409C204.355,290.859 204.768,291.222 205.272,291.495C205.777,291.769 206.377,291.906 207.076,291.906C207.773,291.906 208.375,291.769 208.878,291.495C209.383,291.222 209.796,290.859 210.119,290.409C210.44,289.958 210.676,289.45 210.827,288.888C210.977,288.323 211.052,287.753 211.052,287.173C211.052,286.593 210.977,286.022 210.827,285.458C210.676,284.895 210.44,284.388 210.119,283.937C209.796,283.485 209.383,283.124 208.878,282.851C208.375,282.576 207.773,282.44 207.076,282.44C206.377,282.44 205.777,282.576 205.272,282.851C204.768,283.124 204.355,283.485 204.033,283.937C203.71,284.388 203.474,284.895 203.325,285.458C203.173,286.022 203.099,286.593 203.099,287.173C203.099,287.753 203.173,288.323 203.325,288.888ZM201.916,284.911C202.146,284.187 202.493,283.545 202.954,282.987C203.416,282.429 203.99,281.983 204.676,281.65C205.364,281.317 206.164,281.151 207.076,281.151C207.988,281.151 208.788,281.317 209.474,281.65C210.162,281.983 210.736,282.429 211.197,282.987C211.659,283.545 212.004,284.187 212.236,284.911C212.466,285.636 212.582,286.39 212.582,287.173C212.582,287.956 212.466,288.71 212.236,289.435C212.004,290.159 211.659,290.801 211.197,291.358C210.736,291.917 210.162,292.36 209.474,292.687C208.788,293.015 207.988,293.179 207.076,293.179C206.164,293.179 205.364,293.015 204.676,292.687C203.99,292.36 203.416,291.917 202.954,291.358C202.493,290.801 202.146,290.159 201.916,289.435C201.684,288.71 201.569,287.956 201.569,287.173C201.569,286.39 201.684,285.636 201.916,284.911Z" style="fill:rgb(145,145,145);fill-rule:nonzero;"/>
                <path d="M216.06,281.425L222.113,290.747L222.145,290.747L222.145,281.425L223.594,281.425L223.594,292.921L221.92,292.921L215.915,283.695L215.882,283.695L215.882,292.921L214.433,292.921L214.433,281.425L216.06,281.425Z" style="fill:rgb(145,145,145);fill-rule:nonzero;"/>
                <path d="M231.83,282.995C231.32,282.624 230.667,282.44 229.874,282.44C229.551,282.44 229.235,282.472 228.923,282.536C228.612,282.601 228.335,282.708 228.094,282.858C227.853,283.009 227.66,283.21 227.514,283.462C227.37,283.714 227.297,284.028 227.297,284.403C227.297,284.758 227.402,285.045 227.611,285.265C227.821,285.485 228.099,285.665 228.449,285.804C228.797,285.944 229.192,286.06 229.631,286.15C230.072,286.241 230.52,286.341 230.976,286.448C231.432,286.556 231.88,286.682 232.321,286.827C232.76,286.972 233.155,287.167 233.503,287.414C233.852,287.661 234.131,287.973 234.341,288.349C234.55,288.724 234.655,289.196 234.655,289.765C234.655,290.376 234.518,290.899 234.245,291.335C233.971,291.769 233.619,292.124 233.19,292.398C232.76,292.671 232.28,292.87 231.749,292.993C231.217,293.116 230.689,293.179 230.163,293.179C229.519,293.179 228.91,293.098 228.335,292.937C227.761,292.775 227.257,292.532 226.823,292.204C226.387,291.876 226.044,291.458 225.792,290.948C225.54,290.439 225.414,289.835 225.414,289.137L226.863,289.137C226.863,289.62 226.957,290.036 227.144,290.385C227.332,290.733 227.579,291.021 227.885,291.246C228.191,291.472 228.547,291.638 228.956,291.745C229.364,291.853 229.782,291.906 230.211,291.906C230.555,291.906 230.901,291.874 231.25,291.81C231.598,291.745 231.913,291.636 232.192,291.48C232.47,291.324 232.696,291.112 232.868,290.844C233.04,290.575 233.125,290.232 233.125,289.814C233.125,289.416 233.021,289.095 232.811,288.847C232.602,288.601 232.323,288.399 231.974,288.243C231.625,288.088 231.231,287.962 230.791,287.865C230.351,287.769 229.903,287.669 229.447,287.567C228.991,287.466 228.542,287.347 228.102,287.213C227.662,287.079 227.268,286.901 226.918,286.682C226.57,286.462 226.292,286.177 226.082,285.828C225.873,285.48 225.768,285.042 225.768,284.517C225.768,283.937 225.886,283.435 226.122,283.011C226.358,282.587 226.672,282.238 227.064,281.964C227.456,281.691 227.901,281.487 228.4,281.353C228.899,281.218 229.412,281.151 229.938,281.151C230.528,281.151 231.076,281.222 231.58,281.36C232.084,281.5 232.527,281.72 232.908,282.021C233.289,282.321 233.589,282.7 233.81,283.155C234.03,283.612 234.15,284.157 234.172,284.79L232.723,284.79C232.637,283.964 232.339,283.365 231.83,282.995Z" style="fill:rgb(145,145,145);fill-rule:nonzero;"/>
                <path d="M244.508,292.075C243.724,292.811 242.608,293.179 241.16,293.179C239.678,293.179 238.521,292.827 237.69,292.124C236.858,291.421 236.442,290.302 236.442,288.767L236.442,281.425L237.971,281.425L237.971,288.767C237.971,289.797 238.245,290.577 238.792,291.109C239.34,291.641 240.128,291.906 241.16,291.906C242.136,291.906 242.879,291.641 243.389,291.109C243.899,290.577 244.154,289.797 244.154,288.767L244.154,281.425L245.683,281.425L245.683,288.767C245.683,290.237 245.292,291.341 244.508,292.075Z" style="fill:rgb(145,145,145);fill-rule:nonzero;"/>
                <path d="M249.66,281.425L249.66,291.632L255.746,291.632L255.746,292.921L248.13,292.921L248.13,281.425L249.66,281.425Z" style="fill:rgb(145,145,145);fill-rule:nonzero;"/>
                <path d="M254.376,282.713L254.376,281.425L263.57,281.425L263.57,282.713L259.738,282.713L259.738,292.921L258.208,292.921L258.208,282.713L254.376,282.713Z" style="fill:rgb(145,145,145);fill-rule:nonzero;"/>
                <path d="M269.237,288.171L267.322,282.81L267.29,282.81L265.341,288.171L269.237,288.171ZM268.174,281.425L272.667,292.921L270.976,292.921L269.72,289.459L264.858,289.459L263.57,292.921L262.008,292.921L266.484,281.425L268.174,281.425Z" style="fill:rgb(145,145,145);fill-rule:nonzero;"/>
                <path d="M275.404,281.425L281.457,290.747L281.489,290.747L281.489,281.425L282.938,281.425L282.938,292.921L281.264,292.921L275.258,283.695L275.226,283.695L275.226,292.921L273.777,292.921L273.777,281.425L275.404,281.425Z" style="fill:rgb(145,145,145);fill-rule:nonzero;"/>
                <path d="M284.194,282.713L284.194,281.425L293.387,281.425L293.387,282.713L289.555,282.713L289.555,292.921L288.026,292.921L288.026,282.713L284.194,282.713Z" style="fill:rgb(145,145,145);fill-rule:nonzero;"/>
                <path d="M300.415,282.995C299.905,282.624 299.252,282.44 298.458,282.44C298.136,282.44 297.82,282.472 297.508,282.536C297.197,282.601 296.92,282.708 296.679,282.858C296.438,283.009 296.245,283.21 296.099,283.462C295.955,283.714 295.882,284.028 295.882,284.403C295.882,284.758 295.987,285.045 296.196,285.265C296.406,285.485 296.684,285.665 297.034,285.804C297.382,285.944 297.777,286.06 298.216,286.15C298.657,286.241 299.105,286.341 299.561,286.448C300.017,286.556 300.465,286.682 300.906,286.827C301.345,286.972 301.74,287.167 302.088,287.414C302.437,287.661 302.716,287.973 302.926,288.349C303.135,288.724 303.24,289.196 303.24,289.765C303.24,290.376 303.103,290.899 302.83,291.335C302.556,291.769 302.204,292.124 301.775,292.398C301.345,292.671 300.865,292.87 300.333,292.993C299.802,293.116 299.274,293.179 298.748,293.179C298.104,293.179 297.495,293.098 296.92,292.937C296.346,292.775 295.842,292.532 295.408,292.204C294.972,291.876 294.629,291.458 294.376,290.948C294.125,290.439 293.999,289.835 293.999,289.137L295.448,289.137C295.448,289.62 295.542,290.036 295.729,290.385C295.917,290.733 296.164,291.021 296.47,291.246C296.776,291.472 297.132,291.638 297.541,291.745C297.949,291.853 298.367,291.906 298.796,291.906C299.14,291.906 299.486,291.874 299.834,291.81C300.183,291.745 300.498,291.636 300.777,291.48C301.055,291.324 301.281,291.112 301.453,290.844C301.625,290.575 301.71,290.232 301.71,289.814C301.71,289.416 301.606,289.095 301.396,288.847C301.187,288.601 300.908,288.399 300.559,288.243C300.21,288.088 299.816,287.962 299.375,287.865C298.936,287.769 298.488,287.669 298.032,287.567C297.576,287.466 297.127,287.347 296.687,287.213C296.247,287.079 295.853,286.901 295.503,286.682C295.155,286.462 294.876,286.177 294.667,285.828C294.458,285.48 294.353,285.042 294.353,284.517C294.353,283.937 294.471,283.435 294.707,283.011C294.943,282.587 295.257,282.238 295.649,281.964C296.041,281.691 296.486,281.487 296.985,281.353C297.484,281.218 297.997,281.151 298.523,281.151C299.113,281.151 299.661,281.222 300.165,281.36C300.669,281.5 301.112,281.72 301.493,282.021C301.874,282.321 302.174,282.7 302.395,283.155C302.615,283.612 302.735,284.157 302.757,284.79L301.308,284.79C301.222,283.964 300.924,283.365 300.415,282.995Z" style="fill:rgb(145,145,145);fill-rule:nonzero;"/>
            </g>
        </g>
    </g>
</svg>
