<?xml version="1.0" encoding="UTF-8" standalone="no"?>
<!DOCTYPE svg PUBLIC "-//W3C//DTD SVG 1.1//EN" "http://www.w3.org/Graphics/SVG/1.1/DTD/svg11.dtd">
<svg width="100%" height="100%" viewBox="0 0 1275 221" version="1.1" xmlns="http://www.w3.org/2000/svg" xmlns:xlink="http://www.w3.org/1999/xlink" xml:space="preserve" xmlns:serif="http://www.serif.com/" style="fill-rule:evenodd;clip-rule:evenodd;stroke-linejoin:round;stroke-miterlimit:2;">
    <g transform="matrix(1,0,0,1,-1.1548,0)">
        <g id="dark" transform="matrix(0.885771,0,0,0.792267,51.4227,30.2918)">
            <rect x="-56.75" y="-38.234" width="1439.42" height="278.736" style="fill:none;"/>
            <g transform="matrix(4.704,0,0,5.25917,-52.2445,-36.2942)">
                <path d="M12.847,15.817C14.143,15.817 15.115,15.529 15.763,14.953C16.411,14.377 16.734,13.441 16.734,12.145C16.734,10.898 16.411,9.991 15.763,9.427C15.115,8.863 14.143,8.581 12.847,8.581L6.655,8.581L6.655,15.817L12.847,15.817ZM14.863,4.189C16.015,4.189 17.052,4.376 17.977,4.747C18.9,5.12 19.692,5.629 20.353,6.277C21.012,6.925 21.517,7.675 21.865,8.527C22.212,9.379 22.387,10.297 22.387,11.281C22.387,12.793 22.068,14.102 21.433,15.205C20.796,16.309 19.759,17.149 18.318,17.725L18.318,17.797C19.014,17.989 19.59,18.283 20.046,18.679C20.502,19.075 20.875,19.543 21.163,20.083C21.451,20.623 21.66,21.217 21.793,21.865C21.924,22.513 22.014,23.161 22.063,23.809C22.086,24.217 22.11,24.697 22.135,25.249C22.158,25.801 22.2,26.365 22.261,26.941C22.32,27.517 22.417,28.064 22.548,28.579C22.68,29.095 22.878,29.533 23.143,29.893L17.491,29.893C17.178,29.078 16.986,28.106 16.915,26.977C16.843,25.849 16.734,24.769 16.59,23.737C16.398,22.393 15.99,21.41 15.367,20.785C14.742,20.161 13.722,19.849 12.307,19.849L6.655,19.849L6.655,29.893L1.002,29.893L1.002,4.189L14.863,4.189Z" style="fill:rgb(209,60,39);fill-rule:nonzero;"/>
                <path d="M45.318,4.189L45.318,8.941L31.746,8.941L31.746,14.449L44.202,14.449L44.202,18.841L31.746,18.841L31.746,25.141L45.606,25.141L45.606,29.893L26.094,29.893L26.094,4.189L45.318,4.189Z" style="fill:rgb(209,60,39);fill-rule:nonzero;"/>
                <path d="M67.746,4.189L67.746,8.941L54.174,8.941L54.174,14.449L66.629,14.449L66.629,18.841L54.174,18.841L54.174,25.141L68.034,25.141L68.034,29.893L48.522,29.893L48.522,4.189L67.746,4.189Z" style="fill:rgb(209,60,39);fill-rule:nonzero;"/>
                <path d="M89.022,4.189L89.022,8.941L76.602,8.941L76.602,14.881L87.366,14.881L87.366,19.273L76.602,19.273L76.602,29.893L70.95,29.893L70.95,4.189L89.022,4.189Z" style="fill:rgb(209,60,39);fill-rule:nonzero;"/>
                <path d="M114.594,7.699C113.453,6.871 111.995,6.457 110.22,6.457C109.5,6.457 108.792,6.529 108.096,6.673C107.399,6.817 106.782,7.057 106.242,7.393C105.702,7.73 105.27,8.179 104.945,8.743C104.622,9.307 104.459,10.009 104.459,10.849C104.459,11.641 104.693,12.283 105.162,12.775C105.629,13.267 106.253,13.669 107.034,13.981C107.813,14.293 108.695,14.551 109.68,14.755C110.664,14.96 111.665,15.182 112.686,15.421C113.706,15.661 114.707,15.943 115.691,16.267C116.675,16.591 117.557,17.029 118.337,17.581C119.117,18.133 119.742,18.829 120.209,19.669C120.678,20.509 120.912,21.565 120.912,22.837C120.912,24.205 120.605,25.375 119.994,26.347C119.381,27.319 118.595,28.111 117.636,28.723C116.675,29.335 115.602,29.779 114.414,30.055C113.226,30.331 112.043,30.469 110.868,30.469C109.428,30.469 108.065,30.289 106.782,29.929C105.498,29.569 104.37,29.023 103.397,28.291C102.425,27.559 101.657,26.623 101.094,25.483C100.529,24.343 100.248,22.994 100.248,21.433L103.487,21.433C103.487,22.513 103.697,23.443 104.118,24.223C104.537,25.003 105.089,25.645 105.773,26.149C106.458,26.653 107.255,27.025 108.167,27.265C109.079,27.505 110.015,27.625 110.976,27.625C111.743,27.625 112.518,27.553 113.297,27.409C114.077,27.265 114.779,27.019 115.403,26.671C116.027,26.323 116.531,25.849 116.916,25.249C117.299,24.649 117.492,23.881 117.492,22.945C117.492,22.058 117.257,21.337 116.79,20.785C116.321,20.233 115.697,19.783 114.917,19.435C114.137,19.087 113.255,18.805 112.271,18.589C111.287,18.373 110.285,18.151 109.266,17.923C108.245,17.695 107.243,17.432 106.26,17.131C105.275,16.831 104.393,16.435 103.614,15.943C102.833,15.452 102.209,14.815 101.742,14.035C101.273,13.255 101.04,12.277 101.04,11.101C101.04,9.805 101.303,8.684 101.832,7.735C102.359,6.787 103.061,6.007 103.938,5.395C104.813,4.783 105.81,4.328 106.925,4.027C108.042,3.727 109.188,3.577 110.364,3.577C111.683,3.577 112.907,3.733 114.036,4.045C115.164,4.357 116.153,4.85 117.005,5.521C117.857,6.193 118.529,7.039 119.021,8.059C119.513,9.08 119.783,10.297 119.832,11.713L116.591,11.713C116.399,9.865 115.733,8.527 114.594,7.699Z" style="fill:rgb(35,31,32);fill-rule:nonzero;"/>
                <path d="M158.496,4.189L158.496,27.013L172.104,27.013L172.104,29.893L155.076,29.893L155.076,4.189L158.496,4.189Z" style="fill:rgb(35,31,32);fill-rule:nonzero;"/>
                <path d="M192.984,28.003C191.232,29.647 188.736,30.469 185.496,30.469C182.184,30.469 179.597,29.683 177.738,28.111C175.877,26.54 174.948,24.038 174.948,20.605L174.948,4.189L178.368,4.189L178.368,20.605C178.368,22.909 178.98,24.655 180.204,25.843C181.427,27.031 183.192,27.625 185.496,27.625C187.679,27.625 189.341,27.031 190.482,25.843C191.622,24.655 192.192,22.909 192.192,20.605L192.192,4.189L195.612,4.189L195.612,20.605C195.612,23.894 194.735,26.359 192.984,28.003Z" style="fill:rgb(35,31,32);fill-rule:nonzero;"/>
                <path d="M198.347,7.069L198.347,4.189L218.903,4.189L218.903,7.069L210.334,7.069L210.334,29.893L206.915,29.893L206.915,7.069L198.347,7.069Z" style="fill:rgb(35,31,32);fill-rule:nonzero;"/>
                <rect x="221.891" y="4.189" width="3.42" height="25.704" style="fill:rgb(35,31,32);fill-rule:nonzero;"/>
                <path d="M233.554,20.875C233.89,22.135 234.418,23.269 235.138,24.277C235.858,25.285 236.782,26.095 237.911,26.707C239.038,27.319 240.381,27.625 241.942,27.625C243.502,27.625 244.846,27.319 245.974,26.707C247.102,26.095 248.026,25.285 248.747,24.277C249.466,23.269 249.994,22.135 250.331,20.875C250.667,19.615 250.834,18.337 250.834,17.041C250.834,15.745 250.667,14.467 250.331,13.207C249.994,11.947 249.466,10.813 248.747,9.805C248.026,8.797 247.102,7.987 245.974,7.375C244.846,6.763 243.502,6.457 241.942,6.457C240.381,6.457 239.038,6.763 237.911,7.375C236.782,7.987 235.858,8.797 235.138,9.805C234.418,10.813 233.89,11.947 233.554,13.207C233.218,14.467 233.05,15.745 233.05,17.041C233.05,18.337 233.218,19.615 233.554,20.875ZM230.404,11.983C230.92,10.363 231.694,8.929 232.726,7.681C233.758,6.434 235.042,5.437 236.579,4.693C238.114,3.949 239.902,3.577 241.942,3.577C243.982,3.577 245.77,3.949 247.306,4.693C248.842,5.437 250.126,6.434 251.159,7.681C252.19,8.929 252.963,10.363 253.48,11.983C253.996,13.603 254.254,15.29 254.254,17.041C254.254,18.793 253.996,20.479 253.48,22.099C252.963,23.719 252.19,25.153 251.159,26.401C250.126,27.649 248.842,28.639 247.306,29.371C245.77,30.103 243.982,30.469 241.942,30.469C239.902,30.469 238.114,30.103 236.579,29.371C235.042,28.639 233.758,27.649 232.726,26.401C231.694,25.153 230.92,23.719 230.404,22.099C229.888,20.479 229.63,18.793 229.63,17.041C229.63,15.29 229.888,13.603 230.404,11.983Z" style="fill:rgb(35,31,32);fill-rule:nonzero;"/>
                <path d="M262.03,4.189L275.566,25.033L275.637,25.033L275.637,4.189L278.877,4.189L278.877,29.893L275.133,29.893L261.706,9.265L261.633,9.265L261.633,29.893L258.394,29.893L258.394,4.189L262.03,4.189Z" style="fill:rgb(35,31,32);fill-rule:nonzero;"/>
                <path d="M297.292,7.699C296.152,6.871 294.694,6.457 292.917,6.457C292.198,6.457 291.49,6.529 290.793,6.673C290.097,6.817 289.48,7.057 288.94,7.393C288.4,7.73 287.967,8.179 287.644,8.743C287.32,9.307 287.158,10.009 287.158,10.849C287.158,11.641 287.392,12.283 287.86,12.775C288.328,13.267 288.952,13.669 289.732,13.981C290.511,14.293 291.393,14.551 292.377,14.755C293.362,14.96 294.364,15.182 295.383,15.421C296.404,15.661 297.406,15.943 298.39,16.267C299.374,16.591 300.255,17.029 301.036,17.581C301.815,18.133 302.44,18.829 302.908,19.669C303.375,20.509 303.61,21.565 303.61,22.837C303.61,24.205 303.304,25.375 302.692,26.347C302.08,27.319 301.293,28.111 300.333,28.723C299.374,29.335 298.299,29.779 297.112,30.055C295.923,30.331 294.742,30.469 293.566,30.469C292.125,30.469 290.763,30.289 289.48,29.929C288.196,29.569 287.068,29.023 286.096,28.291C285.124,27.559 284.355,26.623 283.792,25.483C283.228,24.343 282.946,22.994 282.946,21.433L286.186,21.433C286.186,22.513 286.396,23.443 286.816,24.223C287.236,25.003 287.788,25.645 288.472,26.149C289.156,26.653 289.954,27.025 290.866,27.265C291.778,27.505 292.713,27.625 293.673,27.625C294.442,27.625 295.215,27.553 295.996,27.409C296.776,27.265 297.477,27.019 298.102,26.671C298.725,26.323 299.23,25.849 299.614,25.249C299.998,24.649 300.19,23.881 300.19,22.945C300.19,22.058 299.956,21.337 299.488,20.785C299.02,20.233 298.395,19.783 297.616,19.435C296.835,19.087 295.954,18.805 294.97,18.589C293.986,18.373 292.984,18.151 291.963,17.923C290.944,17.695 289.942,17.432 288.958,17.131C287.973,16.831 287.091,16.435 286.312,15.943C285.532,15.452 284.908,14.815 284.44,14.035C283.972,13.255 283.738,12.277 283.738,11.101C283.738,9.805 284.001,8.684 284.53,7.735C285.057,6.787 285.759,6.007 286.636,5.395C287.511,4.783 288.507,4.328 289.624,4.027C290.74,3.727 291.885,3.577 293.062,3.577C294.381,3.577 295.605,3.733 296.734,4.045C297.862,4.357 298.852,4.85 299.704,5.521C300.555,6.193 301.228,7.039 301.72,8.059C302.211,9.08 302.481,10.297 302.53,11.713L299.29,11.713C299.097,9.865 298.431,8.527 297.292,7.699Z" style="fill:rgb(35,31,32);fill-rule:nonzero;"/>
                <path d="M138.97,7.493C138.97,8.176 138.417,8.73 137.734,8.73C137.051,8.73 136.498,8.176 136.498,7.493L136.498,2.136C136.498,1.453 137.051,0.899 137.734,0.899C138.417,0.899 138.97,1.453 138.97,2.136L138.97,7.493Z" style="fill:rgb(209,60,39);fill-rule:nonzero;"/>
                <path d="M138.97,31.191C138.97,31.873 138.417,32.427 137.734,32.427C137.051,32.427 136.498,31.873 136.498,31.191L136.498,25.834C136.498,25.15 137.051,24.596 137.734,24.596C138.417,24.596 138.97,25.15 138.97,25.834L138.97,31.191Z" style="fill:rgb(209,60,39);fill-rule:nonzero;"/>
                <path d="M128.563,15.427C129.248,15.427 129.8,15.98 129.8,16.664C129.8,17.345 129.248,17.9 128.563,17.9L123.207,17.9C122.524,17.9 121.97,17.345 121.97,16.664C121.97,15.98 122.524,15.427 123.207,15.427L128.563,15.427Z" style="fill:rgb(209,60,39);fill-rule:nonzero;"/>
                <path d="M152.261,15.427C152.944,15.427 153.498,15.98 153.498,16.664C153.498,17.345 152.944,17.9 152.261,17.9L146.904,17.9C146.22,17.9 145.667,17.345 145.667,16.664C145.667,15.98 146.22,15.427 146.904,15.427L152.261,15.427Z" style="fill:rgb(209,60,39);fill-rule:nonzero;"/>
                <path d="M134.22,8.104C134.561,8.695 134.359,9.451 133.767,9.793C133.176,10.134 132.419,9.931 132.078,9.34L129.399,4.7C129.058,4.109 129.261,3.353 129.853,3.011C130.442,2.67 131.2,2.873 131.541,3.464L134.22,8.104Z" style="fill:rgb(209,60,39);fill-rule:nonzero;"/>
                <path d="M146.068,28.627C146.41,29.217 146.207,29.974 145.617,30.315C145.025,30.656 144.268,30.453 143.927,29.863L141.248,25.222C140.907,24.63 141.109,23.875 141.701,23.534C142.292,23.193 143.048,23.395 143.39,23.986L146.068,28.627Z" style="fill:rgb(209,60,39);fill-rule:nonzero;"/>
                <path d="M129.173,20.177C129.765,19.835 130.522,20.039 130.863,20.63C131.205,21.22 131.001,21.977 130.41,22.319L125.771,24.998C125.179,25.339 124.423,25.136 124.082,24.544C123.741,23.954 123.943,23.198 124.535,22.856L129.173,20.177Z" style="fill:rgb(209,60,39);fill-rule:nonzero;"/>
                <path d="M149.697,8.329C150.288,7.987 151.044,8.19 151.386,8.781C151.727,9.373 151.524,10.129 150.933,10.47L146.293,13.149C145.703,13.49 144.946,13.288 144.604,12.696C144.263,12.106 144.465,11.349 145.057,11.007L149.697,8.329Z" style="fill:rgb(209,60,39);fill-rule:nonzero;"/>
                <path d="M130.412,11.007C131.001,11.349 131.205,12.106 130.864,12.696C130.522,13.287 129.766,13.49 129.175,13.148L124.535,10.47C123.944,10.128 123.742,9.372 124.083,8.781C124.423,8.19 125.179,7.987 125.771,8.329L130.412,11.007Z" style="fill:rgb(209,60,39);fill-rule:nonzero;"/>
                <path d="M150.933,22.856C151.524,23.198 151.726,23.954 151.386,24.544C151.044,25.136 150.289,25.338 149.697,24.998L145.057,22.318C144.466,21.977 144.264,21.22 144.605,20.63C144.946,20.039 145.703,19.835 146.293,20.177L150.933,22.856Z" style="fill:rgb(209,60,39);fill-rule:nonzero;"/>
                <path d="M132.079,23.986C132.419,23.395 133.176,23.193 133.767,23.534C134.359,23.875 134.561,24.63 134.22,25.222L131.541,29.863C131.201,30.453 130.442,30.656 129.853,30.314C129.261,29.974 129.058,29.217 129.399,28.627L132.079,23.986Z" style="fill:rgb(209,60,39);fill-rule:nonzero;"/>
                <path d="M143.927,3.463C144.267,2.873 145.025,2.67 145.616,3.011C146.207,3.353 146.41,4.109 146.068,4.7L143.39,9.34C143.048,9.931 142.292,10.134 141.701,9.793C141.109,9.451 140.907,8.695 141.249,8.104L143.927,3.463Z" style="fill:rgb(209,60,39);fill-rule:nonzero;"/>
                <path d="M0,40.219L0,38.931L9.192,38.931L9.192,40.219L5.361,40.219L5.361,50.427L3.831,50.427L3.831,40.219L0,40.219Z" style="fill:rgb(145,145,145);fill-rule:nonzero;"/>
                <path d="M18.401,38.931L18.401,40.219L11.994,40.219L11.994,43.874L17.967,43.874L17.967,45.162L11.994,45.162L11.994,49.139L18.45,49.139L18.45,50.427L10.464,50.427L10.464,38.931L18.401,38.931Z" style="fill:rgb(145,145,145);fill-rule:nonzero;"/>
                <path d="M27.249,40.558C26.663,40.15 25.968,39.946 25.164,39.946C24.477,39.946 23.889,40.074 23.4,40.332C22.912,40.59 22.509,40.936 22.193,41.371C21.877,41.805 21.643,42.302 21.493,42.86C21.342,43.418 21.267,43.998 21.267,44.599C21.267,45.253 21.342,45.873 21.493,46.458C21.643,47.043 21.877,47.553 22.193,47.988C22.509,48.422 22.915,48.769 23.409,49.026C23.902,49.284 24.493,49.413 25.18,49.413C25.684,49.413 26.132,49.33 26.524,49.163C26.916,48.997 27.253,48.766 27.538,48.471C27.822,48.175 28.045,47.824 28.207,47.416C28.367,47.008 28.464,46.568 28.496,46.096L30.025,46.096C29.875,47.545 29.376,48.672 28.528,49.477C27.68,50.282 26.521,50.685 25.051,50.685C24.16,50.685 23.382,50.531 22.716,50.226C22.051,49.919 21.498,49.499 21.058,48.961C20.618,48.425 20.288,47.792 20.068,47.062C19.848,46.332 19.738,45.548 19.738,44.711C19.738,43.874 19.856,43.088 20.092,42.353C20.328,41.618 20.674,40.976 21.13,40.429C21.586,39.881 22.155,39.449 22.837,39.133C23.519,38.816 24.299,38.658 25.18,38.658C25.78,38.658 26.349,38.738 26.886,38.899C27.423,39.06 27.9,39.296 28.319,39.607C28.738,39.919 29.086,40.308 29.366,40.775C29.645,41.242 29.827,41.781 29.913,42.393L28.383,42.393C28.211,41.577 27.833,40.965 27.249,40.558Z" style="fill:rgb(145,145,145);fill-rule:nonzero;"/>
                <path d="M33.455,38.931L33.455,43.874L39.508,43.874L39.508,38.931L41.038,38.931L41.038,50.427L39.508,50.427L39.508,45.162L33.455,45.162L33.455,50.427L31.925,50.427L31.925,38.931L33.455,38.931Z" style="fill:rgb(145,145,145);fill-rule:nonzero;"/>
                <path d="M45.159,38.931L51.213,48.253L51.245,48.253L51.245,38.931L52.694,38.931L52.694,50.427L51.02,50.427L45.014,41.202L44.982,41.202L44.982,50.427L43.533,50.427L43.533,38.931L45.159,38.931Z" style="fill:rgb(145,145,145);fill-rule:nonzero;"/>
                <path d="M56.284,46.394C56.435,46.957 56.67,47.464 56.993,47.915C57.314,48.366 57.728,48.728 58.232,49.002C58.737,49.275 59.337,49.413 60.036,49.413C60.733,49.413 61.334,49.275 61.839,49.002C62.343,48.728 62.756,48.366 63.079,47.915C63.4,47.464 63.636,46.957 63.787,46.394C63.937,45.83 64.012,45.259 64.012,44.679C64.012,44.1 63.937,43.528 63.787,42.964C63.636,42.401 63.4,41.894 63.079,41.443C62.756,40.992 62.343,40.63 61.839,40.356C61.334,40.083 60.733,39.946 60.036,39.946C59.337,39.946 58.737,40.083 58.232,40.356C57.728,40.63 57.314,40.992 56.993,41.443C56.67,41.894 56.435,42.401 56.284,42.964C56.134,43.528 56.059,44.1 56.059,44.679C56.059,45.259 56.134,45.83 56.284,46.394ZM54.876,42.417C55.106,41.692 55.452,41.051 55.914,40.493C56.376,39.935 56.95,39.49 57.637,39.157C58.323,38.824 59.123,38.658 60.036,38.658C60.948,38.658 61.748,38.824 62.435,39.157C63.121,39.49 63.695,39.935 64.157,40.493C64.619,41.051 64.964,41.692 65.195,42.417C65.426,43.142 65.542,43.896 65.542,44.679C65.542,45.463 65.426,46.217 65.195,46.941C64.964,47.666 64.619,48.307 64.157,48.865C63.695,49.423 63.121,49.866 62.435,50.193C61.748,50.521 60.948,50.685 60.036,50.685C59.123,50.685 58.323,50.521 57.637,50.193C56.95,49.866 56.376,49.423 55.914,48.865C55.452,48.307 55.106,47.666 54.876,46.941C54.645,46.217 54.529,45.463 54.529,44.679C54.529,43.896 54.645,43.142 54.876,42.417Z" style="fill:rgb(145,145,145);fill-rule:nonzero;"/>
                <path d="M68.939,38.931L68.939,49.139L75.024,49.139L75.024,50.427L67.409,50.427L67.409,38.931L68.939,38.931Z" style="fill:rgb(145,145,145);fill-rule:nonzero;"/>
                <path d="M77.472,46.394C77.622,46.957 77.858,47.464 78.18,47.915C78.502,48.366 78.915,48.728 79.42,49.002C79.924,49.275 80.525,49.413 81.223,49.413C81.92,49.413 82.522,49.275 83.026,49.002C83.531,48.728 83.944,48.366 84.266,47.915C84.588,47.464 84.824,46.957 84.974,46.394C85.125,45.83 85.2,45.259 85.2,44.679C85.2,44.1 85.125,43.528 84.974,42.964C84.824,42.401 84.588,41.894 84.266,41.443C83.944,40.992 83.531,40.63 83.026,40.356C82.522,40.083 81.92,39.946 81.223,39.946C80.525,39.946 79.924,40.083 79.42,40.356C78.915,40.63 78.502,40.992 78.18,41.443C77.858,41.894 77.622,42.401 77.472,42.964C77.321,43.528 77.246,44.1 77.246,44.679C77.246,45.259 77.321,45.83 77.472,46.394ZM76.063,42.417C76.293,41.692 76.64,41.051 77.102,40.493C77.563,39.935 78.137,39.49 78.824,39.157C79.511,38.824 80.311,38.658 81.223,38.658C82.135,38.658 82.935,38.824 83.622,39.157C84.309,39.49 84.883,39.935 85.345,40.493C85.806,41.051 86.152,41.692 86.383,42.417C86.614,43.142 86.729,43.896 86.729,44.679C86.729,45.463 86.614,46.217 86.383,46.941C86.152,47.666 85.806,48.307 85.345,48.865C84.883,49.423 84.309,49.866 83.622,50.193C82.935,50.521 82.135,50.685 81.223,50.685C80.311,50.685 79.511,50.521 78.824,50.193C78.137,49.866 77.563,49.423 77.102,48.865C76.64,48.307 76.293,47.666 76.063,46.941C75.832,46.217 75.717,45.463 75.717,44.679C75.717,43.896 75.832,43.142 76.063,42.417Z" style="fill:rgb(145,145,145);fill-rule:nonzero;"/>
                <path d="M95.52,50.29C94.854,50.553 94.183,50.685 93.507,50.685C92.648,50.685 91.881,50.526 91.205,50.21C90.529,49.893 89.954,49.466 89.482,48.93C89.01,48.393 88.65,47.776 88.403,47.078C88.156,46.38 88.033,45.656 88.033,44.904C88.033,44.067 88.148,43.271 88.379,42.514C88.61,41.757 88.953,41.094 89.41,40.525C89.866,39.957 90.435,39.503 91.116,39.165C91.798,38.827 92.595,38.658 93.507,38.658C94.129,38.658 94.717,38.73 95.27,38.875C95.823,39.02 96.316,39.248 96.752,39.559C97.186,39.871 97.551,40.265 97.846,40.743C98.141,41.22 98.342,41.797 98.45,42.473L96.92,42.473C96.845,42.033 96.706,41.655 96.502,41.338C96.298,41.022 96.045,40.762 95.745,40.558C95.444,40.354 95.104,40.201 94.723,40.099C94.342,39.997 93.937,39.946 93.507,39.946C92.809,39.946 92.211,40.085 91.712,40.364C91.213,40.644 90.805,41.011 90.488,41.467C90.172,41.923 89.938,42.444 89.788,43.029C89.638,43.614 89.563,44.212 89.563,44.824C89.563,45.425 89.648,46.002 89.82,46.555C89.992,47.107 90.244,47.596 90.577,48.02C90.91,48.444 91.32,48.782 91.809,49.034C92.297,49.287 92.863,49.413 93.507,49.413C94.108,49.413 94.639,49.316 95.101,49.123C95.563,48.93 95.952,48.664 96.268,48.326C96.585,47.988 96.824,47.591 96.985,47.134C97.146,46.678 97.215,46.187 97.194,45.661L93.523,45.661L93.523,44.373L98.563,44.373L98.563,50.427L97.597,50.427L97.194,48.994C96.743,49.595 96.185,50.027 95.52,50.29Z" style="fill:rgb(145,145,145);fill-rule:nonzero;"/>
                <path d="M105.566,50.427L104.037,50.427L104.037,45.726L99.593,38.931L101.413,38.931L104.858,44.405L108.223,38.931L109.961,38.931L105.566,45.726L105.566,50.427Z" style="fill:rgb(145,145,145);fill-rule:nonzero;"/>
                <path d="M119.412,43.005C119.594,42.876 119.761,42.731 119.911,42.57C120.061,42.409 120.185,42.23 120.281,42.031C120.378,41.832 120.426,41.609 120.426,41.362C120.426,41.03 120.308,40.743 120.072,40.501C119.836,40.26 119.514,40.139 119.106,40.139C118.784,40.139 118.483,40.238 118.205,40.437C117.925,40.635 117.786,40.944 117.786,41.362C117.786,41.534 117.82,41.706 117.891,41.877C117.96,42.049 118.049,42.219 118.156,42.385C118.263,42.551 118.381,42.715 118.51,42.876C118.639,43.037 118.768,43.198 118.897,43.359C119.058,43.252 119.229,43.133 119.412,43.005ZM117.681,45.339C117.439,45.5 117.228,45.683 117.045,45.887C116.863,46.09 116.718,46.319 116.61,46.571C116.503,46.823 116.45,47.121 116.45,47.464C116.45,47.754 116.511,48.02 116.635,48.261C116.758,48.503 116.922,48.707 117.126,48.873C117.33,49.04 117.563,49.171 117.826,49.268C118.089,49.364 118.36,49.413 118.639,49.413C119.165,49.413 119.635,49.289 120.048,49.042C120.461,48.795 120.807,48.462 121.086,48.044L118.446,44.872C118.178,45.022 117.923,45.178 117.681,45.339ZM120.434,50.201C119.838,50.47 119.224,50.604 118.591,50.604C117.818,50.604 117.195,50.486 116.723,50.25C116.251,50.014 115.886,49.729 115.628,49.397C115.371,49.064 115.202,48.72 115.121,48.366C115.041,48.012 115,47.717 115,47.481C115,47.03 115.073,46.633 115.218,46.289C115.363,45.946 115.556,45.637 115.797,45.363C116.039,45.09 116.323,44.843 116.651,44.623C116.978,44.403 117.324,44.196 117.689,44.003C117.528,43.777 117.373,43.563 117.222,43.359C117.072,43.155 116.935,42.948 116.812,42.739C116.688,42.53 116.592,42.31 116.522,42.079C116.452,41.848 116.417,41.588 116.417,41.298C116.417,40.987 116.474,40.689 116.586,40.404C116.699,40.12 116.865,39.868 117.085,39.648C117.305,39.428 117.577,39.253 117.898,39.125C118.221,38.996 118.591,38.931 119.009,38.931C119.364,38.931 119.71,38.98 120.048,39.076C120.386,39.173 120.684,39.32 120.941,39.519C121.199,39.718 121.406,39.964 121.562,40.26C121.717,40.555 121.795,40.896 121.795,41.282C121.795,41.626 121.736,41.945 121.618,42.24C121.5,42.535 121.338,42.806 121.135,43.053C120.931,43.3 120.7,43.522 120.442,43.721C120.185,43.92 119.917,44.1 119.637,44.26L121.714,46.788C121.929,46.187 122.052,45.591 122.084,45.001L123.389,45.001C123.356,45.345 123.321,45.637 123.284,45.878C123.246,46.12 123.198,46.343 123.139,46.547C123.08,46.751 123.007,46.952 122.922,47.15C122.836,47.349 122.734,47.577 122.616,47.835L124.854,50.427L123.066,50.427L121.843,48.994C121.5,49.531 121.03,49.933 120.434,50.201Z" style="fill:rgb(145,145,145);fill-rule:nonzero;"/>
                <path d="M137.292,40.558C136.706,40.15 136.01,39.946 135.206,39.946C134.518,39.946 133.932,40.074 133.444,40.332C132.954,40.59 132.551,40.936 132.235,41.371C131.918,41.805 131.686,42.302 131.536,42.86C131.385,43.418 131.309,43.998 131.309,44.599C131.309,45.253 131.385,45.873 131.536,46.458C131.686,47.043 131.918,47.553 132.235,47.988C132.551,48.422 132.958,48.769 133.452,49.026C133.944,49.284 134.536,49.413 135.221,49.413C135.727,49.413 136.174,49.33 136.567,49.163C136.958,48.997 137.295,48.766 137.581,48.471C137.866,48.175 138.088,47.824 138.249,47.416C138.411,47.008 138.506,46.568 138.54,46.096L140.069,46.096C139.918,47.545 139.418,48.672 138.571,49.477C137.723,50.282 136.563,50.685 135.092,50.685C134.202,50.685 133.424,50.531 132.758,50.226C132.092,49.919 131.54,49.499 131.1,48.961C130.66,48.425 130.33,47.792 130.11,47.062C129.89,46.332 129.78,45.548 129.78,44.711C129.78,43.874 129.897,43.088 130.134,42.353C130.369,41.618 130.716,40.976 131.172,40.429C131.629,39.881 132.198,39.449 132.879,39.133C133.561,38.816 134.342,38.658 135.221,38.658C135.823,38.658 136.391,38.738 136.928,38.899C137.465,39.06 137.944,39.296 138.362,39.607C138.78,39.919 139.129,40.308 139.409,40.775C139.686,41.242 139.87,41.781 139.956,42.393L138.426,42.393C138.254,41.577 137.875,40.965 137.292,40.558Z" style="fill:rgb(145,145,145);fill-rule:nonzero;"/>
                <path d="M143.498,38.931L143.498,49.139L149.583,49.139L149.583,50.427L141.968,50.427L141.968,38.931L143.498,38.931Z" style="fill:rgb(145,145,145);fill-rule:nonzero;"/>
                <path d="M152.031,46.394C152.18,46.957 152.417,47.464 152.739,47.915C153.061,48.366 153.474,48.728 153.978,49.002C154.483,49.275 155.083,49.413 155.782,49.413C156.479,49.413 157.081,49.275 157.584,49.002C158.089,48.728 158.502,48.366 158.825,47.915C159.146,47.464 159.382,46.957 159.533,46.394C159.683,45.83 159.758,45.259 159.758,44.679C159.758,44.1 159.683,43.528 159.533,42.964C159.382,42.401 159.146,41.894 158.825,41.443C158.502,40.992 158.089,40.63 157.584,40.356C157.081,40.083 156.479,39.946 155.782,39.946C155.083,39.946 154.483,40.083 153.978,40.356C153.474,40.63 153.061,40.992 152.739,41.443C152.417,41.894 152.18,42.401 152.031,42.964C151.879,43.528 151.805,44.1 151.805,44.679C151.805,45.259 151.879,45.83 152.031,46.394ZM150.622,42.417C150.852,41.692 151.199,41.051 151.66,40.493C152.122,39.935 152.696,39.49 153.382,39.157C154.07,38.824 154.87,38.658 155.782,38.658C156.694,38.658 157.494,38.824 158.18,39.157C158.868,39.49 159.442,39.935 159.903,40.493C160.365,41.051 160.71,41.692 160.942,42.417C161.172,43.142 161.288,43.896 161.288,44.679C161.288,45.463 161.172,46.217 160.942,46.941C160.71,47.666 160.365,48.307 159.903,48.865C159.442,49.423 158.868,49.866 158.18,50.193C157.494,50.521 156.694,50.685 155.782,50.685C154.87,50.685 154.07,50.521 153.382,50.193C152.696,49.866 152.122,49.423 151.66,48.865C151.199,48.307 150.852,47.666 150.622,46.941C150.39,46.217 150.275,45.463 150.275,44.679C150.275,43.896 150.39,43.142 150.622,42.417Z" style="fill:rgb(145,145,145);fill-rule:nonzero;"/>
                <path d="M171.158,49.582C170.374,50.317 169.257,50.685 167.809,50.685C166.328,50.685 165.17,50.333 164.339,49.63C163.507,48.927 163.091,47.808 163.091,46.273L163.091,38.931L164.621,38.931L164.621,46.273C164.621,47.303 164.894,48.084 165.442,48.616C165.99,49.147 166.778,49.413 167.809,49.413C168.786,49.413 169.529,49.147 170.039,48.616C170.548,48.084 170.803,47.303 170.803,46.273L170.803,38.931L172.333,38.931L172.333,46.273C172.333,47.744 171.941,48.847 171.158,49.582Z" style="fill:rgb(145,145,145);fill-rule:nonzero;"/>
                <path d="M178.853,49.139C179.025,49.139 179.24,49.126 179.497,49.099C179.754,49.072 180.029,49.007 180.318,48.905C180.608,48.803 180.895,48.656 181.179,48.462C181.463,48.27 181.719,48.006 181.944,47.674C182.169,47.341 182.355,46.925 182.5,46.426C182.645,45.927 182.717,45.323 182.717,44.615C182.717,43.928 182.65,43.314 182.516,42.771C182.381,42.23 182.162,41.768 181.856,41.387C181.549,41.006 181.156,40.716 180.672,40.517C180.189,40.319 179.593,40.219 178.885,40.219L176.309,40.219L176.309,49.139L178.853,49.139ZM178.724,38.931C180.496,38.931 181.858,39.382 182.814,40.284C183.769,41.186 184.247,42.56 184.247,44.405C184.247,45.372 184.139,46.228 183.924,46.973C183.709,47.719 183.377,48.347 182.926,48.857C182.475,49.367 181.901,49.756 181.204,50.024C180.505,50.293 179.679,50.427 178.724,50.427L174.78,50.427L174.78,38.931L178.724,38.931Z" style="fill:rgb(145,145,145);fill-rule:nonzero;"/>
                <path d="M197.537,40.558C196.952,40.15 196.256,39.946 195.452,39.946C194.764,39.946 194.177,40.074 193.689,40.332C193.2,40.59 192.797,40.936 192.481,41.371C192.165,41.805 191.931,42.302 191.781,42.86C191.63,43.418 191.555,43.998 191.555,44.599C191.555,45.253 191.63,45.873 191.781,46.458C191.931,47.043 192.165,47.553 192.481,47.988C192.797,48.422 193.203,48.769 193.697,49.026C194.19,49.284 194.781,49.413 195.467,49.413C195.972,49.413 196.42,49.33 196.812,49.163C197.204,48.997 197.542,48.766 197.827,48.471C198.111,48.175 198.333,47.824 198.495,47.416C198.656,47.008 198.752,46.568 198.785,46.096L200.314,46.096C200.164,47.545 199.665,48.672 198.816,49.477C197.968,50.282 196.809,50.685 195.338,50.685C194.448,50.685 193.669,50.531 193.004,50.226C192.338,49.919 191.786,49.499 191.346,48.961C190.906,48.425 190.576,47.792 190.356,47.062C190.135,46.332 190.026,45.548 190.026,44.711C190.026,43.874 190.144,43.088 190.38,42.353C190.616,41.618 190.962,40.976 191.418,40.429C191.875,39.881 192.443,39.449 193.125,39.133C193.806,38.816 194.587,38.658 195.467,38.658C196.069,38.658 196.637,38.738 197.174,38.899C197.71,39.06 198.189,39.296 198.607,39.607C199.026,39.919 199.375,40.308 199.654,40.775C199.932,41.242 200.115,41.781 200.201,42.393L198.671,42.393C198.5,41.577 198.122,40.965 197.537,40.558Z" style="fill:rgb(145,145,145);fill-rule:nonzero;"/>
                <path d="M203.325,46.394C203.474,46.957 203.71,47.464 204.033,47.915C204.355,48.366 204.768,48.728 205.272,49.002C205.777,49.275 206.377,49.413 207.076,49.413C207.773,49.413 208.375,49.275 208.878,49.002C209.383,48.728 209.796,48.366 210.119,47.915C210.44,47.464 210.676,46.957 210.827,46.394C210.977,45.83 211.052,45.259 211.052,44.679C211.052,44.1 210.977,43.528 210.827,42.964C210.676,42.401 210.44,41.894 210.119,41.443C209.796,40.992 209.383,40.63 208.878,40.356C208.375,40.083 207.773,39.946 207.076,39.946C206.377,39.946 205.777,40.083 205.272,40.356C204.768,40.63 204.355,40.992 204.033,41.443C203.71,41.894 203.474,42.401 203.325,42.964C203.173,43.528 203.099,44.1 203.099,44.679C203.099,45.259 203.173,45.83 203.325,46.394ZM201.916,42.417C202.146,41.692 202.493,41.051 202.954,40.493C203.416,39.935 203.99,39.49 204.676,39.157C205.364,38.824 206.164,38.658 207.076,38.658C207.988,38.658 208.788,38.824 209.474,39.157C210.162,39.49 210.736,39.935 211.197,40.493C211.659,41.051 212.004,41.692 212.236,42.417C212.466,43.142 212.582,43.896 212.582,44.679C212.582,45.463 212.466,46.217 212.236,46.941C212.004,47.666 211.659,48.307 211.197,48.865C210.736,49.423 210.162,49.866 209.474,50.193C208.788,50.521 207.988,50.685 207.076,50.685C206.164,50.685 205.364,50.521 204.676,50.193C203.99,49.866 203.416,49.423 202.954,48.865C202.493,48.307 202.146,47.666 201.916,46.941C201.684,46.217 201.569,45.463 201.569,44.679C201.569,43.896 201.684,43.142 201.916,42.417Z" style="fill:rgb(145,145,145);fill-rule:nonzero;"/>
                <path d="M216.06,38.931L222.113,48.253L222.145,48.253L222.145,38.931L223.594,38.931L223.594,50.427L221.92,50.427L215.915,41.202L215.882,41.202L215.882,50.427L214.433,50.427L214.433,38.931L216.06,38.931Z" style="fill:rgb(145,145,145);fill-rule:nonzero;"/>
                <path d="M231.83,40.501C231.32,40.131 230.667,39.946 229.874,39.946C229.551,39.946 229.235,39.978 228.923,40.043C228.612,40.106 228.335,40.214 228.094,40.364C227.853,40.515 227.66,40.716 227.514,40.968C227.37,41.22 227.297,41.534 227.297,41.91C227.297,42.264 227.402,42.551 227.611,42.771C227.821,42.991 228.099,43.171 228.449,43.311C228.797,43.45 229.192,43.565 229.631,43.657C230.072,43.748 230.52,43.847 230.976,43.955C231.432,44.062 231.88,44.188 232.321,44.333C232.76,44.478 233.155,44.674 233.503,44.92C233.852,45.168 234.131,45.479 234.341,45.855C234.55,46.23 234.655,46.702 234.655,47.271C234.655,47.883 234.518,48.406 234.245,48.841C233.971,49.275 233.619,49.63 233.19,49.903C232.76,50.177 232.28,50.376 231.749,50.499C231.217,50.623 230.689,50.685 230.163,50.685C229.519,50.685 228.91,50.604 228.335,50.443C227.761,50.282 227.257,50.038 226.823,49.71C226.387,49.383 226.044,48.964 225.792,48.455C225.54,47.945 225.414,47.341 225.414,46.643L226.863,46.643C226.863,47.127 226.957,47.543 227.144,47.891C227.332,48.24 227.579,48.527 227.885,48.752C228.191,48.978 228.547,49.145 228.956,49.252C229.364,49.359 229.782,49.413 230.211,49.413C230.555,49.413 230.901,49.38 231.25,49.316C231.598,49.252 231.913,49.142 232.192,48.986C232.47,48.831 232.696,48.618 232.868,48.35C233.04,48.082 233.125,47.738 233.125,47.319C233.125,46.922 233.021,46.601 232.811,46.354C232.602,46.106 232.323,45.905 231.974,45.75C231.625,45.594 231.231,45.468 230.791,45.372C230.351,45.275 229.903,45.176 229.447,45.074C228.991,44.972 228.542,44.854 228.102,44.719C227.662,44.585 227.268,44.408 226.918,44.188C226.57,43.968 226.292,43.684 226.082,43.335C225.873,42.986 225.768,42.548 225.768,42.022C225.768,41.443 225.886,40.941 226.122,40.517C226.358,40.093 226.672,39.745 227.064,39.471C227.456,39.197 227.901,38.993 228.4,38.859C228.899,38.725 229.412,38.658 229.938,38.658C230.528,38.658 231.076,38.728 231.58,38.867C232.084,39.006 232.527,39.227 232.908,39.527C233.289,39.828 233.589,40.206 233.81,40.662C234.03,41.119 234.15,41.663 234.172,42.296L232.723,42.296C232.637,41.47 232.339,40.872 231.83,40.501Z" style="fill:rgb(145,145,145);fill-rule:nonzero;"/>
                <path d="M244.508,49.582C243.724,50.317 242.608,50.685 241.16,50.685C239.678,50.685 238.521,50.333 237.69,49.63C236.858,48.927 236.442,47.808 236.442,46.273L236.442,38.931L237.971,38.931L237.971,46.273C237.971,47.303 238.245,48.084 238.792,48.616C239.34,49.147 240.128,49.413 241.16,49.413C242.136,49.413 242.879,49.147 243.389,48.616C243.899,48.084 244.154,47.303 244.154,46.273L244.154,38.931L245.683,38.931L245.683,46.273C245.683,47.744 245.292,48.847 244.508,49.582Z" style="fill:rgb(145,145,145);fill-rule:nonzero;"/>
                <path d="M249.66,38.931L249.66,49.139L255.746,49.139L255.746,50.427L248.13,50.427L248.13,38.931L249.66,38.931Z" style="fill:rgb(145,145,145);fill-rule:nonzero;"/>
                <path d="M254.376,40.219L254.376,38.931L263.57,38.931L263.57,40.219L259.738,40.219L259.738,50.427L258.208,50.427L258.208,40.219L254.376,40.219Z" style="fill:rgb(145,145,145);fill-rule:nonzero;"/>
                <path d="M269.237,45.677L267.322,40.316L267.29,40.316L265.341,45.677L269.237,45.677ZM268.174,38.931L272.667,50.427L270.976,50.427L269.72,46.965L264.858,46.965L263.57,50.427L262.008,50.427L266.484,38.931L268.174,38.931Z" style="fill:rgb(145,145,145);fill-rule:nonzero;"/>
                <path d="M275.404,38.931L281.457,48.253L281.489,48.253L281.489,38.931L282.938,38.931L282.938,50.427L281.264,50.427L275.258,41.202L275.226,41.202L275.226,50.427L273.777,50.427L273.777,38.931L275.404,38.931Z" style="fill:rgb(145,145,145);fill-rule:nonzero;"/>
                <path d="M284.194,40.219L284.194,38.931L293.387,38.931L293.387,40.219L289.555,40.219L289.555,50.427L288.026,50.427L288.026,40.219L284.194,40.219Z" style="fill:rgb(145,145,145);fill-rule:nonzero;"/>
                <path d="M300.415,40.501C299.905,40.131 299.252,39.946 298.458,39.946C298.136,39.946 297.82,39.978 297.508,40.043C297.197,40.106 296.92,40.214 296.679,40.364C296.438,40.515 296.245,40.716 296.099,40.968C295.955,41.22 295.882,41.534 295.882,41.91C295.882,42.264 295.987,42.551 296.196,42.771C296.406,42.991 296.684,43.171 297.034,43.311C297.382,43.45 297.777,43.565 298.216,43.657C298.657,43.748 299.105,43.847 299.561,43.955C300.017,44.062 300.465,44.188 300.906,44.333C301.345,44.478 301.74,44.674 302.088,44.92C302.437,45.168 302.716,45.479 302.926,45.855C303.135,46.23 303.24,46.702 303.24,47.271C303.24,47.883 303.103,48.406 302.83,48.841C302.556,49.275 302.204,49.63 301.775,49.903C301.345,50.177 300.865,50.376 300.333,50.499C299.802,50.623 299.274,50.685 298.748,50.685C298.104,50.685 297.495,50.604 296.92,50.443C296.346,50.282 295.842,50.038 295.408,49.71C294.972,49.383 294.629,48.964 294.376,48.455C294.125,47.945 293.999,47.341 293.999,46.643L295.448,46.643C295.448,47.127 295.542,47.543 295.729,47.891C295.917,48.24 296.164,48.527 296.47,48.752C296.776,48.978 297.132,49.145 297.541,49.252C297.949,49.359 298.367,49.413 298.796,49.413C299.14,49.413 299.486,49.38 299.834,49.316C300.183,49.252 300.498,49.142 300.777,48.986C301.055,48.831 301.281,48.618 301.453,48.35C301.625,48.082 301.71,47.738 301.71,47.319C301.71,46.922 301.606,46.601 301.396,46.354C301.187,46.106 300.908,45.905 300.559,45.75C300.21,45.594 299.816,45.468 299.375,45.372C298.936,45.275 298.488,45.176 298.032,45.074C297.576,44.972 297.127,44.854 296.687,44.719C296.247,44.585 295.853,44.408 295.503,44.188C295.155,43.968 294.876,43.684 294.667,43.335C294.458,42.986 294.353,42.548 294.353,42.022C294.353,41.443 294.471,40.941 294.707,40.517C294.943,40.093 295.257,39.745 295.649,39.471C296.041,39.197 296.486,38.993 296.985,38.859C297.484,38.725 297.997,38.658 298.523,38.658C299.113,38.658 299.661,38.728 300.165,38.867C300.669,39.006 301.112,39.227 301.493,39.527C301.874,39.828 302.174,40.206 302.395,40.662C302.615,41.119 302.735,41.663 302.757,42.296L301.308,42.296C301.222,41.47 300.924,40.872 300.415,40.501Z" style="fill:rgb(145,145,145);fill-rule:nonzero;"/>
            </g>
        </g>
    </g>
</svg>
